<svg id="Layer_1" data-name="Layer 1" xmlns="http://www.w3.org/2000/svg" viewBox="0 0 549.81 541.94"><defs><style>.cls-1{fill:#231f20;fill-rule:evenodd;}</style></defs><title>ants</title><path class="cls-1" d="M538.09,649.42a2.76,2.76,0,0,1-.28.5l.25.09a3.24,3.24,0,0,1,1.84.84,4.79,4.79,0,0,1,.76,1l.11.16a1.67,1.67,0,0,0-.19-1.42,2.24,2.24,0,0,1-.34-.92,3.58,3.58,0,0,0-1.47-1.37l.19-.12c-.44-.85-.91-1-1.7-1.49a4.83,4.83,0,0,1,.54.72,2.08,2.08,0,0,1,.29,2Zm.08,8.31-2.32,3.64.06.25.11.18a1.24,1.24,0,0,1-.26,0,1,1,0,0,0-.3.1l-.08-.22-.17-.24.36-.14,2.41-3.68a.79.79,0,0,1-.12-.34,4.81,4.81,0,0,1,.1-1.65c-.09-.09-.08-.21.18-.33a2,2,0,0,1,1.38.05c.37.13.34,0,.64-.07a1.65,1.65,0,0,1,.15-.59l0,0a1.7,1.7,0,0,0-.35-.52l0,0c-1.08.84-2,.91-3.19-.34a5.65,5.65,0,0,1-2.27-1.52,11.69,11.69,0,0,1-1.1-1.64l-.64-.39c-.06.29-.12.57-.2.85a1.61,1.61,0,0,1-.63.88c-.3.22-.88-.35-1.06-.5a5.82,5.82,0,0,0-2.23-1.32c-.22-.06-.45-.1-.69-.17a.52.52,0,0,1-.37-.21,2.45,2.45,0,0,1-1.74-.36c-.3-.15-.19-.34,0-.48a1.55,1.55,0,0,1,1.83.34c.26-.11.32-.15.58,0l.6.36A18,18,0,0,1,531,651.1l.7.63a7.15,7.15,0,0,0,.4-.84,7.5,7.5,0,0,0,.26-.91l-.45-.28-.31.11c-.07,0,.12-.58.5-.79l-.09.29.43.3c.07-.29.13-.58.2-.85a7.49,7.49,0,0,1-.63-1.15,1.73,1.73,0,0,1,.29-1.71c.14.28,0,.72.06.81l.27.35a3,3,0,0,1,2-1.64c-.13-.06-.25-.18-.39-.2-.4,0-.66.13-1.08,0,1-.64,1.48-.6,2.21-.13.37.25.73.5,1.07.78l.35,0-.67-.94-.29.09c.2-.38.8-.58.78-.51l-.11.31.64,1,2.4-.21a12.36,12.36,0,0,1,1.36-1.7c.4-.42.83-.84,1.25-1.23a.53.53,0,0,1,.54-.21,2.41,2.41,0,0,1,1.87-1c.43,0,.39.17.15.46a4,4,0,0,1-1.83.94c-.16.26-.25.28-.54.4a2.74,2.74,0,0,0-1.27.89l-1.39,1.56a2.88,2.88,0,0,1-1.44.39l-.91,0,.07.11a12.39,12.39,0,0,1,1.65,1.08,5.83,5.83,0,0,1,1.55,2.26c1.18,1.14,1.21,2,.54,3a1.57,1.57,0,0,0,.29.28,2,2,0,0,1,1.05-.13,1.17,1.17,0,0,0,0-1,1.67,1.67,0,0,1-.12-.49c0-.5.08-.71.49-.82a4.89,4.89,0,0,1,2.24-1.09l3.47-3.11V646l-.06-.2a1.16,1.16,0,0,1,.26.08.94.94,0,0,0,.31,0l0,.24.1.28-.39,0-3.52,3.08c-.34.76-1.55,1-2.32,1.17.09.31.23.42.34.73a1.43,1.43,0,0,1-.64,1.49c.07.17,0,.44-.27.77l.15.21a5.25,5.25,0,0,1,1.18-.06.46.46,0,0,1,.32.17,20.79,20.79,0,0,1,3.63-1.8,1.5,1.5,0,0,1,.36,0h0l.12,0a12.35,12.35,0,0,1,3.56-.41l7.93-1.09.15-.19,0-.17.09.18.1.17.14.08L560,651l0,.18v.16l-.15-.22-.2-.1-7.73,1a9.31,9.31,0,0,1-3.7.45,1.37,1.37,0,0,1-.2.16c-1.23.5-2.63,1.43-4,1.54a.38.38,0,0,1-.12.17,2.65,2.65,0,0,1-1,.47c.06.17.11.35.17.53a2.65,2.65,0,0,1,1.43.47c.85-1.87,2.74-2.09,4.46-1.52a3.69,3.69,0,0,1,2,.35,3.1,3.1,0,0,1,1.3,1.14,1.72,1.72,0,0,1,0,1.85A4.2,4.2,0,0,1,550,659.3a3.18,3.18,0,0,1-1.15,0c-1.91.37-4,.22-4.48-2a1.78,1.78,0,0,1-1.95-.88,3.81,3.81,0,0,1-.44-.14,1.69,1.69,0,0,1-.22.57.3.3,0,0,1-.18.16c-.13,1.36-1.06,2.76-1.57,4a1.32,1.32,0,0,1-.12.16,9.9,9.9,0,0,1,.17,3.73l.59,8.06.13.18.25.11-.16,0-.18,0-.24.17-.1-.12-.19-.07-.2,0,.16-.08.16-.19-.53-8.13a12.32,12.32,0,0,1-.18-3.69.34.34,0,0,1,0-.12h0a1.06,1.06,0,0,1,0-.43,21.38,21.38,0,0,1,1.81-3.65.45.45,0,0,1-.18-.27,3.28,3.28,0,0,1-.12-.91,2.62,2.62,0,0,1-.38-.37,2.06,2.06,0,0,1-.31.17.38.38,0,0,1-.06.13c-.21.38-1,.53-1.39.5-.11,0-.2-.12-.3-.18l-.23-.11-.1,0a.51.51,0,0,0-.05.37c.06.35.12.66.15,1s-.11.52-.26.52ZM537,646.11l-.29,0,.41.39.08-.09-.2-.28Zm2.19,7.71a3.31,3.31,0,0,1-1-.51l-.81-.69c-.26-.5-.24-1-.51-1.44l-.23-.22a2.1,2.1,0,0,1-.53.19,1.91,1.91,0,0,1-1.64-.55,8.23,8.23,0,0,1-1.57-1.49l-.12.73.73.52.13-.14c.58.91.72,1.43,1.64,1.9l.12-.2a3.58,3.58,0,0,0,1.38,1.46,2.09,2.09,0,0,1,.92.33,1.58,1.58,0,0,0,1.5.11Z" transform="translate(-26.8 -131.49)"/><path class="cls-1" d="M526.7,591.8a3,3,0,0,0,.51.07,5.81,5.81,0,0,1-.16.85,3.34,3.34,0,0,0-.23,1.4,5.4,5.4,0,0,0,.42,1.23,1.83,1.83,0,0,1-1.19-.19,2.24,2.24,0,0,0-1-.3,3.63,3.63,0,0,1-1.49-1.44l-.11.21c-1-.45-1.15-1-1.78-1.89l-.13.15-1.59-1,.09-.3c-.38.24-.55.88-.48.84l.31-.12,1.53.84a12.88,12.88,0,0,0,1.2,1.64,5.89,5.89,0,0,0,2.41,1.47c1,.94,1.79,1.1,2.58.71a3.61,3.61,0,0,0,.33.35,2.08,2.08,0,0,0,0,1.41.89.89,0,0,0-.07.19c-.32,0-.32.12-.65-.11a2.13,2.13,0,0,0-1.37-.43c-.3,0-.33.16-.27.28a4.77,4.77,0,0,0-.54,1.62.7.7,0,0,0,0,.37l-3.38,3-.41,0,.1.29,0,.25a1,1,0,0,1,.32,0,2.15,2.15,0,0,0,.26.07l-.06-.21v-.26l3.29-3c.14,0,.33-.12.39-.45a8.94,8.94,0,0,0,.12-1A.55.55,0,0,1,526,598l.08,0,.21.18c.08.09.14.22.25.26a1.76,1.76,0,0,0,1.52-.12.48.48,0,0,0,.09-.11l.14,0a5,5,0,0,0,.47.6.82.82,0,0,0,0,.8l-.09.13a.39.39,0,0,0,0,.34,13.55,13.55,0,0,0-2.31,2c-.13.19-.17.44-.07.52a14.29,14.29,0,0,0-.68,3.86l-1.6,8.25-.17.12-.15,0,.15.09.14.1.06.12.25-.08h.16l.13,0-.18-.15-.07-.18,1.58-8.44a13.63,13.63,0,0,0,.66-3.76l0,0a10.47,10.47,0,0,0,2.2-2.36.35.35,0,0,0,.15,0l.13,0a1.82,1.82,0,0,0,.29,1.83,3,3,0,0,0-1.67,1.76,4.79,4.79,0,0,0,.56,3.79,4.55,4.55,0,0,0,.83,2.19,3.77,3.77,0,0,0,1.59,1.27,1.94,1.94,0,0,0,2.11-.31,4.85,4.85,0,0,0,1.36-2.94,4.12,4.12,0,0,0-.29-1.32c0-1.6-.32-3.26-1.43-4.13a2.84,2.84,0,0,0-1.47-.59,2.44,2.44,0,0,0-.44-1.92l.14-.19a2,2,0,0,0,.78.11.5.5,0,0,0,.16-.05,10.39,10.39,0,0,0,3,1.16h.09a12.06,12.06,0,0,0,1.9,3l4.59,7.22v.2l-.12.21.12-.07.16-.06h.25v-.14l.1-.14.11-.15-.15,0-.21,0-4.54-7a13.14,13.14,0,0,0-2-3.2.4.4,0,0,0-.15-.26h0l-.14-.11a13.57,13.57,0,0,0-3-.81.41.41,0,0,0-.15-.3,4.9,4.9,0,0,0-.92-.56,2.93,2.93,0,0,0,.18-2,.69.69,0,0,0,.21-.1l.14,0c.44.08,1.08-.45,1.31-.79.07-.1,0-.24.05-.36s0-.21.07-.26a.69.69,0,0,1,0-.1.57.57,0,0,1,.33.2,10.4,10.4,0,0,0,.7.79c.23.23.48.25.58.13l4.39.51.15.21.07.21s.14-.15.18-.21.27-.18.27-.18l-.12-.21-.08-.3-.36.21-4.47-.48a1,1,0,0,0-.19-.31,4.55,4.55,0,0,0-1.37-1c0-.14-.11-.21-.38-.07a2.2,2.2,0,0,0-.87,1.14c-.13.39-.21.28-.47.47a1.88,1.88,0,0,0-.55-.26,3,3,0,0,0-.46-.48,2.38,2.38,0,0,0,.44-1.1c.77,0,1.38-.42,2-1.55a5.86,5.86,0,0,0,1.78-2.2,12.25,12.25,0,0,0,.59-2l1.16-1.3h.34c.08,0-.29-.54-.73-.63l.18.26-1.16,1.49-.17-.1c-.29,1.09-.28,1.64-1.05,2.38l-.18-.16a3.75,3.75,0,0,1-.92,1.87,2.26,2.26,0,0,0-.81.6,1.86,1.86,0,0,1-1.08.59,4,4,0,0,0-1.12-1.56c-.16-.15-.31-.31-.47-.48a2.75,2.75,0,0,0,.66-.42,2,2,0,0,0,.53-1.72,8.54,8.54,0,0,0-.16-1.68,15,15,0,0,0,2,1.6,1,1,0,0,0,1,0c.28-.13-.07-1.12-.16-1.4a10,10,0,0,1-.58-3.14c0-.26,0-.52,0-.81a.85.85,0,0,0-.08-.51,3.23,3.23,0,0,0,.14-2c-.06-.41-.26-.44-.44-.31-.47.44-.49,1.13-.19,2-.16.17-.22.2-.16.56s.11.56.16.84a31.82,31.82,0,0,0,.79,3.24c.12.38.25.76.37,1.14a7.9,7.9,0,0,1-3-1.9,6.38,6.38,0,0,0-.69-1.62,1.75,1.75,0,0,0-1.59-.78c.14.29.6.42.63.54l.12.43a3,3,0,0,0-2.57.73c0-.15,0-.32.07-.45.21-.36.5-.48.66-.92-1.16.5-1.39.9-1.44,1.8a12.16,12.16,0,0,0,0,1.35,7.79,7.79,0,0,1-2,2.69c0-.36,0-.72,0-1.09,0-1-.15-2-.27-3,0-.26-.06-.52-.1-.77s-.11-.33-.29-.42c0-.87-.22-1.45-.72-1.68-.18-.05-.34,0-.27.41a2.88,2.88,0,0,0,.66,1.62.86.86,0,0,0,.08.46c.08.25.17.46.25.67a9.71,9.71,0,0,1,.41,2.87c0,.26,0,1.21.26,1.23a.85.85,0,0,0,.76-.32,15.91,15.91,0,0,0,1.24-2.11,6.35,6.35,0,0,0,.38,1.53,2.11,2.11,0,0,0,1.52,1.47Z" transform="translate(-26.8 -131.49)"/><path class="cls-1" d="M565.79,603.75a2.51,2.51,0,0,0,.73.24,6.77,6.77,0,0,1-.37.71,3.26,3.26,0,0,0-.63,1.26,3.51,3.51,0,0,0,.11,1.21,1.84,1.84,0,0,1-1.07-.66,2.24,2.24,0,0,0-.77-.67,3.73,3.73,0,0,1-.79-1.92l-.19.15a4.07,4.07,0,0,1-.87-2.45l-.19.08-1-1.57.19-.24c-.44.06-.85.57-.77.57h.34l1.06,1.39a13.28,13.28,0,0,0,.45,2,5.84,5.84,0,0,0,1.63,2.32c.59,1.36,1.28,1.79,2.25,1.68a4.37,4.37,0,0,0,.31.61,2.33,2.33,0,0,0-.4,1.08,1.89,1.89,0,0,0-.32.45c-.31,0-.33.08-.63-.2a2.14,2.14,0,0,0-1.29-.61c-.3,0-.35.11-.3.24a4.67,4.67,0,0,0-.76,1.53.81.81,0,0,0,0,.37l-3.76,2.51h-.4l.06.29v.25a.93.93,0,0,1,.31,0,1.91,1.91,0,0,0,.26.11l0-.22,0-.26,3.66-2.51c.14.06.35-.07.45-.39s.18-.66.26-1a.53.53,0,0,1,.21-.33l.07.07s.19.2.19.2.1.23.2.29a1.76,1.76,0,0,0,1.53.09l.11-.1a.94.94,0,0,0,.27,0,4.51,4.51,0,0,0,.28.76,1,1,0,0,0-.24.59l-.29.21a.41.41,0,0,0-.15.31,13.6,13.6,0,0,0-2.81,1.25c-.18.14-.29.36-.21.47a14.27,14.27,0,0,0-1.79,3.48l-3.95,7.4-.2.06h-.15l.12.13.11.13,0,.14h.26l.16,0,.12.06-.13-.2,0-.19,4-7.59a13.06,13.06,0,0,0,1.74-3.39l.06,0a10.2,10.2,0,0,0,2.8-1.59.25.25,0,0,0,.13,0,1.42,1.42,0,0,0,.41,0,1.87,1.87,0,0,0-.54,1.74,3,3,0,0,0-2.19.73,4.73,4.73,0,0,0-1.34,3.58,4.59,4.59,0,0,0-.34,2.32,3.87,3.87,0,0,0,.77,1.89,2,2,0,0,0,2,.77,4.72,4.72,0,0,0,2.6-1.89,3.85,3.85,0,0,0,.39-1.3c.77-1.39,1.29-3,.74-4.31a2.75,2.75,0,0,0-1.08-1.29,2.15,2.15,0,0,0,.4-2.06l.1-.08a1.77,1.77,0,0,0,.44.31.32.32,0,0,0,.16,0,10.44,10.44,0,0,0,2,2.5l0,0a13.37,13.37,0,0,0-.18,3.76l-.34,8.59-.11.15-.21.11h.13l.16,0,.22.14.09-.11.16-.06.17-.05-.14-.07-.15-.15.28-8.41a13.87,13.87,0,0,0,.2-3.88c.11-.07.09-.33,0-.54a13.44,13.44,0,0,0-2.17-2.16.38.38,0,0,0,0-.33,3.18,3.18,0,0,0-.41-.77l0-.13a3,3,0,0,0,.77-2h0l.12.08c.4.21,1.16-.11,1.48-.37.09-.07.1-.21.16-.32s.1-.18.14-.23l.06-.08a.54.54,0,0,1,.26.29,10.45,10.45,0,0,0,.44,1c.15.29.38.38.51.3l4,1.81.08.25v.22a2.16,2.16,0,0,0,.22-.16,1,1,0,0,1,.31-.08l-.05-.24v-.31l-.39.09L572,609.9a.78.78,0,0,0-.09-.35,4.78,4.78,0,0,0-1-1.37c0-.14-.05-.23-.34-.18a2.14,2.14,0,0,0-1.17.83c-.24.33-.28.2-.58.31l-.21-.23a3.07,3.07,0,0,0-.34-.71,1.8,1.8,0,0,0,.77-1.33c.78,0,1.36-.52,1.87-1.69a5.84,5.84,0,0,0,1.63-2.32,13.28,13.28,0,0,0,.45-2l1.06-1.39h.34c.08,0-.33-.52-.77-.58l.2.24-1.06,1.58-.17-.09c-.22,1.1-.17,1.65-.89,2.45l-.18-.15a3.81,3.81,0,0,1-.79,1.93c-.37.16-.48.38-.77.66a1.89,1.89,0,0,1-1,.65,6.17,6.17,0,0,0-.65-1.47A6.38,6.38,0,0,1,568,604a2.36,2.36,0,0,0,.52-.21,2,2,0,0,0,.91-1.55,7.54,7.54,0,0,0,0-3.86,30,30,0,0,0,3.65.21,1.56,1.56,0,0,0,.94-.6c.25-.29-.29-.94-.43-1.13a6,6,0,0,1-1.2-2.42c0-.23-.07-.47-.12-.73a.55.55,0,0,0-.19-.4,2.6,2.6,0,0,0-.25-1.83c-.13-.32-.34-.23-.49,0a1.65,1.65,0,0,0,.22,1.93.53.53,0,0,0,0,.6c.1.22.21.43.33.64a19.48,19.48,0,0,0,1.41,2.37c.19.26.4.51.59.77-1.54.68-3,.12-4.53.24a1.82,1.82,0,0,0-1.3-1c.08.32.49.55.5.67l0,.46a3,3,0,0,0-2.67.1,1.08,1.08,0,0,1,.17-.43c.29-.3.6-.34.85-.73-1.13.19-1.5.48-1.74,1.19-1.5.25-2.82,1.19-4.48.91.12-.3.25-.6.38-.9a20,20,0,0,0,.79-2.64c.06-.24.12-.47.16-.71s0-.35-.19-.57a1.65,1.65,0,0,0-.26-1.92c-.21-.19-.43-.24-.48.11a2.66,2.66,0,0,0,.2,1.84.58.58,0,0,0-.08.43c0,.27,0,.51.06.74a6.15,6.15,0,0,1-.57,2.64c-.09.22-.46,1-.14,1.21a1.53,1.53,0,0,0,1,.34,26.75,26.75,0,0,0,3.44-1.09,7.63,7.63,0,0,0-.34,3.27,2.1,2.1,0,0,0,1.14,1.79Z" transform="translate(-26.8 -131.49)"/><path class="cls-1" d="M555.82,536.48c.09.25.2.5.31.75-.54.56-1.18.92-1.72,1.53a2,2,0,0,0-.39.61c-.69-.25-.94-.74-1.34-1.7a4.72,4.72,0,0,0-.66-1.37,8.7,8.7,0,0,1-.41-3.33l-.23.14c-.58-1.56-.41-2.38-.39-4.18l-.21.05-.76-2.91.26-.28c-.48-.11-1,.5-.93.54l.35.16.81,2.63a32.06,32.06,0,0,0,0,3.28,13.37,13.37,0,0,0,1.2,4.32c.34,2.46,1,3.42,2.13,3.66a4.25,4.25,0,0,0,.29,1.19,2.17,2.17,0,0,0-.15.22.63.63,0,0,0-.55.05,1.41,1.41,0,0,0-1.6-.14c-.26.21-.32.37-.58.56-.39-.69-1-1.77-1.83-1.86l-4-2.41-.16-.36-.23.18-.22.1a.92.92,0,0,1,.11.29,1.86,1.86,0,0,0,0,.27l.18-.12.23-.08,4,2.35a5,5,0,0,0,1.74,1.8c.23.37.45.37.91.22a1.36,1.36,0,0,0,.43-.27,1.21,1.21,0,0,1,.91-.32,2.46,2.46,0,0,0,.51,1.07c-.86.6-1,.8-.75,1.83-.58.42-.71.62-.73.88l-.52.06c-1.63.06-3.2.26-4.82.45a1.46,1.46,0,0,0-.81.33,9.43,9.43,0,0,0-2.67,4c-2.15,2.3-4.24,4.59-7.11,6l-.3-.14-.47.53.35.42.58-.51c2.9-1.21,5.05-3.7,7.07-6,1.5-.82,2-2.54,2.81-4l1,0a13,13,0,0,0,4.44-.73l.46.11a3.44,3.44,0,0,1,0,.51c-1.14,0-1.34,1-1.39,2a4.53,4.53,0,0,0-1.17-.2c-1.47,0-2.77,1.72-3.08,3-.12.5-.06,1-.13,1.54,0,.16-.1.31-.13.48a5,5,0,0,0,.73,3.3,2,2,0,0,0,1.92.94,4.78,4.78,0,0,0,3.5-2.06,4.71,4.71,0,0,0,1.36-2.77,5.23,5.23,0,0,0-.39-2.53,2.43,2.43,0,0,0-1-1c.72-.53,1.25-1.11.87-2.07.31-.61.65-.57.79-1.33a5.74,5.74,0,0,0,.86-.29l.43.7a2.26,2.26,0,0,0,.17,1.5.31.31,0,0,0,.1.1,9.45,9.45,0,0,0,1.12,3.54l1.92,8.55-.17.27.51.24.35-.44-.33-.15c-.76-2.8-1.33-5.63-2-8.45a7.1,7.1,0,0,0-1.08-3.71,2.09,2.09,0,0,0,.11-1.35.92.92,0,0,0,.15-.59,5,5,0,0,0-.46-1.46,2.09,2.09,0,0,0,0-.26l.13-.1a2.24,2.24,0,0,0,.52.06,1.24,1.24,0,0,0,.74-.33,5.28,5.28,0,0,1,.78.21,2.69,2.69,0,0,1,.71.5c.43.39.51.73,1.11,1a2.48,2.48,0,0,0,1.38.06c.93.34,2.25,1,3.26.9.53-.07,1.05-.15,1.58-.21a27.94,27.94,0,0,1,5.41-.08l.51.32.23-.55-.39-.44-.32.29a33.9,33.9,0,0,0-5.79.12c-.32-.12-.63-.26-.95-.35a5.24,5.24,0,0,0-1-.18c-.33,0-.66,0-1,0a3.42,3.42,0,0,1-1.69-.37c-.47-.25-1-.42-1.44-.65-.78-.37-1.46-.66-2.22-.94,0-.16-.07-.32-.37-.44l-.58-.23c0-.13,0-.27-.05-.43a3.91,3.91,0,0,0,.58-.4c1.12.7,2.27.45,4.16-1.47a13.41,13.41,0,0,0,3.53-2.73,28.92,28.92,0,0,0,2-2.6l2.21-1.6.38.08c.09,0,0-.79-.42-1l0,.39L566.66,535l-.14-.17c-1.06,1.45-1.4,2.21-2.8,3.11l-.09-.25a8.81,8.81,0,0,1-2.31,2.41,4.37,4.37,0,0,0-1.35.7c-.94.55-1.43.78-2.2.5l0,0a3.09,3.09,0,0,0,.07-2,2.89,2.89,0,0,0,1.06,0,4.94,4.94,0,0,0,1.42-.31,12.88,12.88,0,0,0,2.6-1.36,13.82,13.82,0,0,0,1.74-2.16,2.4,2.4,0,0,0,.38-2c-.55-.07-1,1.52-1.17,1.93a2.69,2.69,0,0,0-1.86-3,8.47,8.47,0,0,1,2.36.62c-.3-1.28-2.14-1.36-3.17-1.3a6.19,6.19,0,0,0-3.77,1.73,8.55,8.55,0,0,0-1.13,1,1.55,1.55,0,0,0-.43,2Z" transform="translate(-26.8 -131.49)"/><path class="cls-1" d="M493.7,501.17a3,3,0,0,1-.58.53,7,7,0,0,0,.63.48c.54.36.89.54,1.09.9a3.5,3.5,0,0,1,.39,1.14,1.89,1.89,0,0,0,.71-1.05,2.42,2.42,0,0,1,.42-.92,3.71,3.71,0,0,0-.06-2.09l.23.06a4.05,4.05,0,0,0-.19-2.6h.2l.32-1.88-.28-.14c.43-.12,1,.18.93.21l-.3.15-.4,1.71a13.6,13.6,0,0,1,.4,2,6,6,0,0,1-.55,2.79c0,1.49-.44,2.16-1.36,2.47,0,.23,0,.46,0,.68a2.18,2.18,0,0,1,.79.83,1.55,1.55,0,0,1,.48.27c.26-.18.33-.07.49-.45a2.21,2.21,0,0,1,.93-1.09c.28-.12.37,0,.38.1a4.48,4.48,0,0,1,1.31,1.08.91.91,0,0,1,.17.32l4.44.73.36-.18.07.29.1.23s-.24.09-.28.16a1.31,1.31,0,0,1-.18.2l-.06-.21-.14-.22-4.36-.77c-.1.11-.34.08-.57-.16s-.43-.54-.65-.83a.61.61,0,0,0-.32-.22.69.69,0,0,0,0,.1,2.06,2.06,0,0,0-.09.26c0,.11,0,.25-.07.35-.25.32-.91.82-1.35.71l-.14,0-.25.1a6.1,6.1,0,0,1,0,.8.93.93,0,0,1,.45.45,1.21,1.21,0,0,1,.35.07.37.37,0,0,1,.27.22,13.06,13.06,0,0,1,3.06,0c.23.06.42.22.4.35a13.83,13.83,0,0,1,3,2.42l6.61,5.11.21,0,.13-.08-.05.18,0,.16,0,.14-.23.1-.13.1-.09.11,0-.24-.06-.18-6.72-5.26a13.57,13.57,0,0,1-3-2.37h-.05a10.09,10.09,0,0,1-3.2-.29.32.32,0,0,1-.1.1,1,1,0,0,1-.38.16,1.85,1.85,0,0,1,1.2,1.37,3,3,0,0,1,2.29-.25,4.65,4.65,0,0,1,2.68,2.71,4.5,4.5,0,0,1,1.25,2,3.81,3.81,0,0,1,.07,2,2,2,0,0,1-1.51,1.54,4.68,4.68,0,0,1-3.14-.64,4.32,4.32,0,0,1-.88-1c-1.27-1-2.4-2.2-2.43-3.63a2.85,2.85,0,0,1,.46-1.63,2.1,2.1,0,0,1-1.2-1.71l-.12,0a1.81,1.81,0,0,1-.28.45.41.41,0,0,1-.14.1,10.55,10.55,0,0,1-.85,3.13l0,0A13.36,13.36,0,0,1,496,517l3.8,7.69.17.09h.23l-.12.07-.12.1-.15.22-.12-.07-.17,0-.18,0,.1-.12.07-.2-3.67-7.55a14,14,0,0,1-1.76-3.46c-.13,0-.22-.25-.19-.49a14.11,14.11,0,0,1,1.09-2.88.45.45,0,0,1-.14-.3,3.26,3.26,0,0,1,.07-.87l0-.13a2.88,2.88,0,0,1-1.51-1.48h0l-.09.12a1.73,1.73,0,0,1-1.5.29c-.11,0-.18-.16-.27-.23a2,2,0,0,0-.22-.15l-.09-.05a.58.58,0,0,0-.12.37,9.37,9.37,0,0,1,0,1.06c0,.33-.19.5-.35.48l-2.95,3.34,0,.26.08.2a1.44,1.44,0,0,1-.27-.05,1.11,1.11,0,0,0-.31.05l-.06-.24-.13-.27.4-.09,3-3.35a.75.75,0,0,1-.06-.36,4.71,4.71,0,0,1,.36-1.67c-.08-.11-.05-.23.24-.31a2.14,2.14,0,0,1,1.4.27c.35.2.34.07.66,0a1.43,1.43,0,0,1,.1-.29,2.63,2.63,0,0,1,0-.79,1.83,1.83,0,0,1-1.24-.89c-.72.28-1.45.09-2.39-.77a5.77,5.77,0,0,1-2.43-1.43,12.81,12.81,0,0,1-1.22-1.63l-1.54-.82-.3.13c-.08,0,.08-.61.46-.85l-.08.3,1.6,1,.13-.15c.64.91.82,1.43,1.8,1.86l.11-.21a3.7,3.7,0,0,0,1.5,1.43,2.26,2.26,0,0,1,1,.28,1.87,1.87,0,0,0,1.16.19,6.27,6.27,0,0,1,0-1.62,7.45,7.45,0,0,0,0-.83,2.67,2.67,0,0,1-.56,0,2,2,0,0,1-1.46-1,7.47,7.47,0,0,1-1.55-3.53,31.05,31.05,0,0,1-3.25,1.71,1.67,1.67,0,0,1-1.1-.15c-.34-.17-.11-1-.06-1.22a6,6,0,0,0,.1-2.7c-.05-.23-.12-.46-.18-.72a.56.56,0,0,1,0-.44,2.59,2.59,0,0,1-.52-1.77c0-.35.22-.35.46-.2a1.65,1.65,0,0,1,.58,1.85c.22.18.29.22.29.53s0,.48,0,.72a17.83,17.83,0,0,1-.33,2.74c-.07.32-.15.64-.22.95,1.68,0,2.81-1.15,4.23-1.66A1.84,1.84,0,0,1,489,496c.06.32-.22.7-.17.81l.16.43a3,3,0,0,1,2.48-1c-.11-.11-.19-.26-.33-.32-.38-.15-.69-.06-1.08-.31,1.11-.3,1.57-.18,2.08.36,1.47-.39,3-.09,4.45-1-.23-.22-.48-.43-.71-.66a17.91,17.91,0,0,1-1.8-2.08,6.07,6.07,0,0,1-.43-.57c-.17-.26-.14-.33-.05-.6a1.65,1.65,0,0,1-.56-1.86c.12-.26.3-.39.49-.1a2.62,2.62,0,0,1,.56,1.76c.17.11.18.17.25.36s.17.48.25.7a6,6,0,0,0,1.59,2.17c.17.17.82.7.62,1a1.54,1.54,0,0,1-.82.75,26.42,26.42,0,0,1-3.58.43,7.62,7.62,0,0,1,1.64,2.84,2.14,2.14,0,0,1-.3,2.11Z" transform="translate(-26.8 -131.49)"/><path class="cls-1" d="M527.22,514a3,3,0,0,1-.71.32,7.57,7.57,0,0,0,.44.66,3.32,3.32,0,0,1,.75,1.2,3.78,3.78,0,0,1,0,1.21,1.87,1.87,0,0,0,1-.77c.25-.31.34-.54.69-.73a3.75,3.75,0,0,0,.61-2l.2.13a4,4,0,0,0,.63-2.53l.19.07.89-1.67-.21-.22c.44,0,.9.49.82.5l-.34,0-.92,1.49a12.34,12.34,0,0,1-.26,2,6,6,0,0,1-1.39,2.47c-.46,1.4-1.11,1.9-2.08,1.89a5,5,0,0,1-.25.64,2.07,2.07,0,0,1,.5,1,1.65,1.65,0,0,1,.36.41c.31-.09.34,0,.61-.26a2.14,2.14,0,0,1,1.23-.74c.3,0,.36.08.32.21a4.42,4.42,0,0,1,.9,1.45.78.78,0,0,1,.07.36l4,2.13.4-.05,0,.3,0,.24a1.1,1.1,0,0,0-.31.06,1.9,1.9,0,0,1-.24.14v-.22l-.07-.25-3.88-2.15c-.14.08-.36,0-.49-.33s-.24-.65-.36-1a.57.57,0,0,0-.23-.32l-.07.08s-.16.22-.16.22-.08.24-.18.31a1.74,1.74,0,0,1-1.51.24l-.12-.09a1.12,1.12,0,0,1-.27,0,4.17,4.17,0,0,1-.21.78.94.94,0,0,1,.3.57,1.92,1.92,0,0,1,.31.18.39.39,0,0,1,.18.29,14.18,14.18,0,0,1,2.91,1c.19.12.32.34.26.46a13.78,13.78,0,0,1,2.11,3.28l4.65,7,.21.05.15,0-.11.15-.09.14v.14l-.26,0-.15.06-.12.07.11-.21v-.19l-4.7-7.16a13.63,13.63,0,0,1-2.06-3.2h0a10.25,10.25,0,0,1-2.94-1.31.31.31,0,0,1-.13.06,1.12,1.12,0,0,1-.41,0,1.87,1.87,0,0,1,.71,1.68,3,3,0,0,1,2.25.51,4.73,4.73,0,0,1,1.68,3.43,4.5,4.5,0,0,1,.55,2.28,3.84,3.84,0,0,1-.57,2,2,2,0,0,1-1.92,1,4.71,4.71,0,0,1-2.77-1.63,4.08,4.08,0,0,1-.52-1.25c-.89-1.31-1.57-2.85-1.15-4.22a2.76,2.76,0,0,1,.95-1.39,2.17,2.17,0,0,1-.6-2l-.1-.06a1.81,1.81,0,0,1-.41.34.34.34,0,0,1-.16,0,10.06,10.06,0,0,1-1.8,2.69l0,0a13,13,0,0,1,.55,3.72l1.17,8.51.13.15.22.08-.14,0-.15.06-.21.16-.09-.1-.17,0-.17,0,.13-.08.13-.17L524.13,530a14.12,14.12,0,0,1-.57-3.84c-.13-.06-.13-.32,0-.53a13.89,13.89,0,0,1,2-2.38.43.43,0,0,1,0-.32,3.33,3.33,0,0,1,.34-.81s0-.09,0-.13a2.92,2.92,0,0,1-.95-1.9h0l-.12.09a1.7,1.7,0,0,1-1.51-.22c-.1-.06-.12-.2-.18-.3s-.13-.18-.17-.22l-.07-.07a.59.59,0,0,0-.23.31,9.06,9.06,0,0,1-.34,1c-.13.31-.34.42-.48.35l-3.85,2.2-.06.26v.22a1.9,1.9,0,0,1-.24-.14,1,1,0,0,0-.31,0l0-.25,0-.3.4.05,3.94-2.2a.85.85,0,0,1,0-.36,4.71,4.71,0,0,1,.88-1.46c0-.13,0-.23.32-.21a2.07,2.07,0,0,1,1.24.71c.28.3.3.17.61.25a1.38,1.38,0,0,1,.19-.25,2.89,2.89,0,0,1,.27-.74,1.81,1.81,0,0,1-.9-1.25c-.77,0-1.4-.38-2-1.5a5.78,5.78,0,0,1-1.85-2.14,13.37,13.37,0,0,1-.64-1.94l-1.19-1.28-.34,0c-.08,0,.27-.55.71-.65l-.17.26,1.2,1.46.17-.11c.32,1.08.32,1.63,1.11,2.36l.17-.17a3.76,3.76,0,0,0,1,1.84c.38.12.51.33.82.58a2,2,0,0,0,1,.55,5.83,5.83,0,0,1,.5-1.53,7.91,7.91,0,0,0,.3-.78,2.26,2.26,0,0,1-.54-.15,2,2,0,0,1-1.06-1.45,7.47,7.47,0,0,1-.35-3.84,31.52,31.52,0,0,1-3.62.56,1.55,1.55,0,0,1-1-.5c-.28-.27.2-1,.32-1.17a6,6,0,0,0,1-2.52c0-.24,0-.48.05-.74a.59.59,0,0,1,.14-.42,2.63,2.63,0,0,1,.08-1.85c.1-.33.31-.25.49,0a1.64,1.64,0,0,1,0,1.94c.16.24.21.29.11.59s-.17.45-.26.67a19,19,0,0,1-1.18,2.5c-.16.27-.34.54-.51.82,1.59.53,3-.18,4.53-.21a1.81,1.81,0,0,1,1.2-1.06c0,.31-.43.59-.42.71l0,.45a3,3,0,0,1,2.66-.16c-.07-.14-.09-.31-.21-.41-.31-.27-.63-.28-.92-.64,1.15.08,1.54.33,1.86,1,1.51.1,2.91.9,4.54.46-.15-.29-.31-.57-.46-.85a19.66,19.66,0,0,1-1.05-2.56c-.08-.22-.16-.45-.23-.68s0-.36.14-.59a1.65,1.65,0,0,1,.07-1.94c.19-.21.41-.27.49.07a2.59,2.59,0,0,1,0,1.84.54.54,0,0,1,.13.43c0,.26,0,.5,0,.74a6.16,6.16,0,0,0,.82,2.57c.11.21.56.93.26,1.19a1.56,1.56,0,0,1-1,.44,27.33,27.33,0,0,1-3.53-.75,7.61,7.61,0,0,1,.65,3.22,2.11,2.11,0,0,1-.95,1.9Z" transform="translate(-26.8 -131.49)"/><path class="cls-1" d="M506,445.26c-.11.25-.23.49-.36.73.5.6,1.1,1,1.59,1.66a2.08,2.08,0,0,1,.34.64c.71-.19,1-.65,1.47-1.58a4.68,4.68,0,0,1,.77-1.32,8.59,8.59,0,0,0,.67-3.28l.22.16c.7-1.52.59-2.35.72-4.14l.2.07,1-2.84-.24-.3c.49-.07,1,.58.89.61l-.36.14-1,2.55a32,32,0,0,1-.3,3.27,13.42,13.42,0,0,1-1.54,4.21c-.53,2.42-1.27,3.32-2.41,3.47a4.25,4.25,0,0,1-.38,1.17l.14.22a.59.59,0,0,1,.53.1,1.43,1.43,0,0,1,1.62,0,7.73,7.73,0,0,0,.52.6c.45-.65,1.15-1.68,2-1.7l4.18-2.08.18-.35.22.2.2.12a1.06,1.06,0,0,0-.13.28,1.35,1.35,0,0,1,0,.27l-.16-.14-.23-.09-4.19,2a5,5,0,0,1-1.86,1.66c-.26.34-.49.33-.94.14a1.66,1.66,0,0,1-.41-.3A1.16,1.16,0,0,0,508,451a2.39,2.39,0,0,1-.6,1c.82.67,1,.88.61,1.89.55.46.66.67.66.93l.51.1c1.62.2,3.17.53,4.77.85a1.42,1.42,0,0,1,.78.39,9.32,9.32,0,0,1,2.34,4.23c2,2.46,3.87,4.92,6.61,6.59l.31-.11.42.57-.37.38-.54-.55c-2.8-1.44-4.75-4.09-6.58-6.58-1.42-.94-1.83-2.69-2.48-4.2l-1-.12a12.82,12.82,0,0,1-4.37-1.08l-.47.07a2.87,2.87,0,0,0,0,.51c1.14.13,1.26,1.1,1.23,2.08a4.06,4.06,0,0,1,1.18-.11c1.47.12,2.63,1.94,2.83,3.24.08.51,0,1,0,1.55a4,4,0,0,0,.09.48,5,5,0,0,1-1,3.24,2,2,0,0,1-2,.78,4.79,4.79,0,0,1-3.33-2.34,4.7,4.7,0,0,1-1.13-2.87,5.39,5.39,0,0,1,.58-2.49,2.47,2.47,0,0,1,1.1-.93c-.67-.59-1.16-1.21-.7-2.14-.26-.63-.6-.61-.68-1.39a4.3,4.3,0,0,1-.83-.36l-.49.67a2.23,2.23,0,0,1-.29,1.48.31.31,0,0,1-.11.09,9.6,9.6,0,0,1-1.39,3.44l-2.59,8.37.15.28-.53.19-.32-.45.34-.14c1-2.72,1.78-5.49,2.67-8.25a7,7,0,0,1,1.37-3.61,2.18,2.18,0,0,1,0-1.36.92.92,0,0,1-.1-.59,5.21,5.21,0,0,1,.57-1.42,2.46,2.46,0,0,1,0-.26l-.13-.12a2.27,2.27,0,0,1-.52,0,1.21,1.21,0,0,1-.71-.39,5.24,5.24,0,0,0-.79.15,2.52,2.52,0,0,0-.76.44c-.45.36-.56.69-1.18.88a2.52,2.52,0,0,1-1.38,0c-.95.26-2.32.84-3.32.63l-1.55-.34a27.12,27.12,0,0,0-5.39-.51l-.54.27-.18-.56.42-.42.3.32a35.82,35.82,0,0,1,5.76.59c.33-.09.65-.21,1-.27a4.5,4.5,0,0,1,1-.1c.33,0,.65.08,1,.11a3.45,3.45,0,0,0,1.71-.24c.49-.21,1-.34,1.49-.53.8-.3,1.51-.54,2.29-.75,0-.17.1-.32.4-.41l.6-.18c0-.13,0-.27.09-.43a3.24,3.24,0,0,1-.56-.45c-1.17.61-2.29.27-4-1.8a13.38,13.38,0,0,1-3.31-3,31.2,31.2,0,0,1-1.77-2.75l-2.07-1.78-.39.05c-.09,0,0-.79.51-1l-.07.38,2.18,2,.15-.15c.94,1.52,1.22,2.31,2.54,3.32l.12-.24a8.84,8.84,0,0,0,2.11,2.59,4.45,4.45,0,0,1,1.28.8c.9.63,1.37.9,2.15.68l.06,0a3.19,3.19,0,0,1,.08-2,2.91,2.91,0,0,1-1.05-.07,5.09,5.09,0,0,1-1.39-.42,12.85,12.85,0,0,1-2.49-1.56,13.86,13.86,0,0,1-1.56-2.3,2.4,2.4,0,0,1-.22-2.06c.56,0,.88,1.59,1,2a2.68,2.68,0,0,1,2.09-2.83,8.4,8.4,0,0,0-2.4.42c.41-1.25,2.25-1.18,3.26-1a6.26,6.26,0,0,1,3.63,2,8.55,8.55,0,0,1,1,1.13,1.54,1.54,0,0,1,.27,2Z" transform="translate(-26.8 -131.49)"/><path class="cls-1" d="M367.47,331.86a2.38,2.38,0,0,1-.24.51l.26.08a3.28,3.28,0,0,1,1.9.69,5.13,5.13,0,0,1,.83.91,1,1,0,0,0,.12.15,1.67,1.67,0,0,0-.3-1.4,2.57,2.57,0,0,1-.41-.89,3.52,3.52,0,0,0-1.57-1.25l.18-.14a3.4,3.4,0,0,0-1.81-1.35,4.87,4.87,0,0,1,.6.68,2.08,2.08,0,0,1,.44,2Zm.72,8.28-2,3.81.08.24.12.17a1.42,1.42,0,0,1-.26,0,.9.9,0,0,0-.29.12l-.1-.21-.19-.23.36-.17L368,340a.68.68,0,0,1-.14-.32,4.42,4.42,0,0,1,0-1.66c-.1-.08-.1-.2.15-.34a2,2,0,0,1,1.39-.06c.38.1.33,0,.62-.12a2.13,2.13,0,0,1,.11-.6l0-.05a2.11,2.11,0,0,0-.39-.49l0,0c-1,.92-1.89,1.06-3.21-.09a5.46,5.46,0,0,1-2.38-1.33,13.53,13.53,0,0,1-1.23-1.55l-.67-.34a8.1,8.1,0,0,1-.13.86,1.53,1.53,0,0,1-.56.93c-.28.25-.91-.28-1.09-.41a5.59,5.59,0,0,0-2.33-1.14l-.7-.12a.55.55,0,0,1-.39-.18,2.42,2.42,0,0,1-1.75-.22c-.31-.13-.22-.33,0-.48a1.56,1.56,0,0,1,1.85.19c.25-.13.3-.17.57-.05s.42.2.63.31a17.58,17.58,0,0,1,2.28,1.36l.74.56a7.49,7.49,0,0,0,.34-.87c.07-.28.13-.6.18-.92l-.47-.24-.29.13c-.07,0,.07-.59.43-.83l-.07.3.45.27c.05-.3.09-.6.13-.87a7.16,7.16,0,0,1-.71-1.1,1.74,1.74,0,0,1,.16-1.72c.16.27,0,.71.12.8l.29.32a3,3,0,0,1,1.89-1.78c-.13-.06-.25-.17-.4-.17-.4,0-.65.18-1.08.09,1-.72,1.43-.72,2.19-.3a11.32,11.32,0,0,1,1.13.69l.35-.06-.75-.88-.27.12c.17-.41.75-.65.73-.58s-.07.32-.07.32l.71,1,2.38-.41a13.56,13.56,0,0,1,1.22-1.8c.36-.44.76-.9,1.15-1.32.22-.23.23-.23.52-.25a2.38,2.38,0,0,1,1.79-1.09c.43,0,.41.14.19.44a3.92,3.92,0,0,1-1.75,1.08c-.14.27-.23.3-.51.44a2.8,2.8,0,0,0-1.2,1l-1.26,1.66a3,3,0,0,1-1.41.51l-.91,0,.08.1a12.08,12.08,0,0,1,1.72.95,5.6,5.6,0,0,1,1.72,2.13c1.27,1.05,1.36,1.9.78,3a1.36,1.36,0,0,0,.3.25,2.23,2.23,0,0,1,1.05-.2,1.24,1.24,0,0,0-.09-1,1.73,1.73,0,0,1-.15-.49c0-.49,0-.71.42-.85a5,5,0,0,1,2.15-1.26l3.21-3.38v-.25l-.08-.2a1.74,1.74,0,0,1,.27.06,1.08,1.08,0,0,0,.3,0l.05.23.11.27-.38.07-3.27,3.35c-.29.79-1.47,1.13-2.23,1.36.12.29.26.39.4.69a1.45,1.45,0,0,1-.52,1.54c.08.16,0,.44-.22.79a1.63,1.63,0,0,1,.17.2,5.31,5.31,0,0,1,1.17-.16.47.47,0,0,1,.33.15,20.88,20.88,0,0,1,3.49-2.08,1.1,1.1,0,0,1,.35-.05h.12a12.36,12.36,0,0,1,3.52-.69l7.82-1.71.13-.2,0-.18.11.18.11.16.15.07-.09.28v.19l0,.16-.17-.21-.2-.08-7.63,1.6a9.16,9.16,0,0,1-3.66.74.67.67,0,0,1-.17.17c-1.2.6-2.52,1.63-3.86,1.86a.55.55,0,0,1-.1.18,3,3,0,0,1-1,.54l.2.51a2.72,2.72,0,0,1,1.47.36c.7-1.92,2.57-2.3,4.33-1.87a3.72,3.72,0,0,1,2,.2,3.15,3.15,0,0,1,1.38,1,1.75,1.75,0,0,1,.19,1.85,4.21,4.21,0,0,1-2.14,1.81,3.74,3.74,0,0,1-1.16.07c-1.86.51-4,.53-4.61-1.69a1.8,1.8,0,0,1-2-.72l-.45-.11a1.77,1.77,0,0,1-.17.59.39.39,0,0,1-.17.17c0,1.37-.84,2.84-1.25,4.12a.83.83,0,0,1-.12.17,9.88,9.88,0,0,1,.46,3.71l1.21,8,.15.17.25.09-.15,0-.18.07-.23.19-.11-.12-.19-.05-.2,0,.15-.09.14-.19-1.15-8.07a12.46,12.46,0,0,1-.47-3.67s0-.07,0-.11h0a1,1,0,0,1,0-.43,21.37,21.37,0,0,1,1.53-3.78.51.51,0,0,1-.21-.26,4,4,0,0,1-.18-.89,3.19,3.19,0,0,1-.41-.35,1.1,1.1,0,0,1-.3.19c0,.05,0,.1,0,.14-.19.4-1,.61-1.36.61-.11,0-.2-.1-.3-.16l-.25-.09-.09,0a.57.57,0,0,0,0,.38c.09.34.17.64.23,1s-.07.52-.22.54Zm-2.08-11.49h-.29a4.94,4.94,0,0,1,.44.36l.08-.1-.23-.26Zm2.78,7.51a3.35,3.35,0,0,1-1.05-.42l-.87-.63c-.29-.48-.31-.95-.61-1.4l-.24-.2a2.17,2.17,0,0,1-.52.23,1.92,1.92,0,0,1-1.67-.41,7.74,7.74,0,0,1-1.68-1.37c0,.24-.05.49-.07.74l.76.46.13-.16c.64.88.82,1.38,1.78,1.77l.1-.21a3.54,3.54,0,0,0,1.49,1.35,2.39,2.39,0,0,1,.94.25,1.56,1.56,0,0,0,1.51,0Z" transform="translate(-26.8 -131.49)"/><path class="cls-1" d="M408.06,340.53a3.19,3.19,0,0,1-.19.48,7,7,0,0,0,.82.26,3.23,3.23,0,0,1,1.32.46,4.94,4.94,0,0,1,.88,1,1.93,1.93,0,0,0,.4-1.15,2.38,2.38,0,0,1,.2-1,3.72,3.72,0,0,0-.55-2h.23c.08-1.08-.3-1.48-.8-2.48l.19,0-.13-1.9-.3-.07c.39-.22,1-.07,1,0l-.26.22V336a13.74,13.74,0,0,1,.86,1.85,5.94,5.94,0,0,1,.13,2.84c.34,1.36.11,2.12-.61,2.63a2.6,2.6,0,0,1,.16.47,2,2,0,0,1,1.21.7l.2,0c.14-.29.26-.23.21-.63a2.19,2.19,0,0,1,.28-1.42c.18-.24.3-.22.37-.1a4.53,4.53,0,0,1,1.66.28.79.79,0,0,1,.31.2l4.22-1.59.23-.34.2.23.2.14a1,1,0,0,0-.16.28c0,.07-.06.27-.06.27l-.16-.16-.22-.12-4.17,1.51c0,.15-.26.24-.58.14a8.93,8.93,0,0,1-1-.39.53.53,0,0,0-.38,0,.31.31,0,0,0,0,.1,2.24,2.24,0,0,0,.05.27.85.85,0,0,1,.11.34c-.06.41-.4,1.17-.83,1.3a.58.58,0,0,1-.14,0l-.09.11a5.2,5.2,0,0,1,.31.7.81.81,0,0,1,.68.42l.16,0a.4.4,0,0,1,.32.11,13.59,13.59,0,0,1,2.86-1.09c.23,0,.46,0,.49.18a14.45,14.45,0,0,1,3.68,1.22l7.94,2.5.19-.1.1-.12v.18l0,.18.08.11-.19.18-.08.14-.05.13,0-.23-.12-.16-8.1-2.6a12.94,12.94,0,0,1-3.59-1.19l-.05,0a10.35,10.35,0,0,1-3.1.84.33.33,0,0,1-.07.13.39.39,0,0,1-.08.1,1.79,1.79,0,0,1,1.45,1.13A3.06,3.06,0,0,1,418,347a4.67,4.67,0,0,1,3,2.3,4.53,4.53,0,0,1,1.52,1.78,3.8,3.8,0,0,1,.35,2,2,2,0,0,1-1.28,1.73,4.64,4.64,0,0,1-3.2-.18,3.88,3.88,0,0,1-1-.89c-1.39-.76-2.68-1.83-2.92-3.23a2.94,2.94,0,0,1,.19-1.59,2.35,2.35,0,0,1-1.46-1.3l-.24,0a2,2,0,0,1-.28.76.31.31,0,0,1-.12.11,10.35,10.35,0,0,1-.4,3.22.59.59,0,0,0,0,.08,12.11,12.11,0,0,1,1.73,3.13l4.12,7.52.17.09h.23l-.11.08-.12.11L418,363l-.12-.06-.17,0-.18,0,.1-.12.06-.21-4-7.38a13.71,13.71,0,0,1-1.85-3.28.46.46,0,0,1-.15-.25v0l0-.17a14.13,14.13,0,0,1,.69-3,.45.45,0,0,1-.18-.27,4.92,4.92,0,0,1-.05-1.09,2.92,2.92,0,0,1-1.85-.8l-.18.14,0,.14c-.15.44-.91.75-1.32.79-.12,0-.22-.08-.33-.12a2.07,2.07,0,0,0-.26-.06l-.11,0a.59.59,0,0,0,0,.4c.13.33.25.64.35,1s0,.54-.16.57l-1.63,4.16.11.24.15.16a1.9,1.9,0,0,1-.27.05,1,1,0,0,0-.28.15l-.13-.2-.22-.21.34-.22,1.71-4.21a.84.84,0,0,1-.18-.32,4.66,4.66,0,0,1-.22-1.69c-.11-.08-.13-.2.11-.37a2.13,2.13,0,0,1,1.42-.23c.4.06.34-.06.63-.2a1.86,1.86,0,0,1,0-.61,2.65,2.65,0,0,1-.2-.64,2.23,2.23,0,0,1-1.16-.13c-.36.69-1,1-2.29,1a5.83,5.83,0,0,1-2.76.54,13.48,13.48,0,0,1-2-.4l-1.68.41-.15.3c0,.08-.33-.51-.2-.94l.13.28,1.85-.32v-.2a4,4,0,0,0,2.57.19l-.05-.23a3.6,3.6,0,0,0,2.06.06,2.25,2.25,0,0,1,.91-.43,1.82,1.82,0,0,0,1-.69,3.93,3.93,0,0,1-.82-1.73c-.06-.22-.12-.43-.2-.64a2.87,2.87,0,0,1-.68.38,2,2,0,0,1-1.75-.34,8.38,8.38,0,0,1-1.38-.94,15,15,0,0,1,.42,2.58,1,1,0,0,1-.43.85c-.25.19-.94-.6-1.14-.8a10.06,10.06,0,0,0-2.47-2l-.71-.35a.84.84,0,0,1-.41-.32,3,3,0,0,1-1.77-.81c-.33-.24-.26-.43-.06-.54.6-.2,1.21.11,1.86.81.23-.06.28-.1.57.12s.44.36.66.55c.82.71,1.66,1.43,2.44,2.24l.82.87a8.07,8.07,0,0,0-.23-3.59,7.08,7.08,0,0,1-1.08-1.39,1.8,1.8,0,0,1,.08-1.78c.18.26.08.73.16.81l.32.32A3.07,3.07,0,0,1,404,336.9a1.4,1.4,0,0,0-.43-.16c-.41,0-.65.22-1.11.16,1-.8,1.45-.82,2.25-.43.41.2.8.4,1.18.63a7.6,7.6,0,0,0,3.26-.45l-.93-.53c-.88-.52-1.69-1.1-2.49-1.67-.21-.15-.42-.3-.62-.46s-.24-.25-.23-.45c-.75-.43-1.16-.89-1.12-1.44,0-.19.2-.28.48,0a2.79,2.79,0,0,1,1.1,1.35.83.83,0,0,1,.37.29l.46.54a9.28,9.28,0,0,0,2.3,1.72c.22.14,1.06.58,1,.82a.85.85,0,0,1-.64.52,15,15,0,0,1-2.43.11,5.51,5.51,0,0,1,1.15,1.06,2.15,2.15,0,0,1,.57,2.06Z" transform="translate(-26.8 -131.49)"/><path class="cls-1" d="M408.11,389.66a2.88,2.88,0,0,0,.75-.16c0,.27,0,.53,0,.79a3.24,3.24,0,0,0,.08,1.42,3.43,3.43,0,0,0,.7,1,1.89,1.89,0,0,1-1.26,0,2.27,2.27,0,0,0-1-.19,3.62,3.62,0,0,1-1.64-1.26l-.09.22c-1-.32-1.24-.82-2-1.67l-.11.17-1.69-.83,0-.3c-.35.27-.45.93-.38.89l.3-.17,1.6.66a13.46,13.46,0,0,0,1.39,1.49,5.67,5.67,0,0,0,2.56,1.18c1.19.87,2,.89,2.78.31a4.28,4.28,0,0,0,.57.37,2.26,2.26,0,0,0,.19,1.14,1.78,1.78,0,0,0-.05.54c-.3.12-.25.24-.64.15a2.07,2.07,0,0,0-1.43.14c-.25.15-.24.27-.14.36a4.67,4.67,0,0,0,.11,1.7.84.84,0,0,0,.16.33L407,402l-.36.19.2.23.12.21s.22-.14.29-.13a2.34,2.34,0,0,0,.27,0l-.14-.17-.09-.24,1.91-4c.15,0,.27-.24.2-.57a9.51,9.51,0,0,0-.28-1,.53.53,0,0,1,0-.39l.1,0,.25.08c.11.05.21.15.33.14.41,0,1.19-.27,1.36-.69a1.21,1.21,0,0,0,0-.14,1.06,1.06,0,0,0,.22-.16,4.22,4.22,0,0,0,.62.51,1,1,0,0,0,.09.64,1.56,1.56,0,0,0-.14.33.36.36,0,0,0,0,.34,13.84,13.84,0,0,0-1.81,2.5c-.08.22-.07.47.05.53a14.1,14.1,0,0,0,.19,3.91l.27,8.4-.14.16-.14.06.17.06.16.06.08.11.22-.14.16,0,.14,0-.21-.1-.12-.16-.33-8.58a13.42,13.42,0,0,0-.18-3.82l0,0a10.73,10.73,0,0,0,1.63-2.79l.14,0a1.41,1.41,0,0,0,.34-.22,1.89,1.89,0,0,0,.4,1.78,3.09,3.09,0,0,0-1.53,1.74,4.76,4.76,0,0,0,.63,3.78,4.6,4.6,0,0,0,.86,2.18,3.86,3.86,0,0,0,1.6,1.24,1.94,1.94,0,0,0,2.11-.35,4.76,4.76,0,0,0,1.31-3,4.1,4.1,0,0,0-.31-1.32c0-1.59-.37-3.25-1.5-4.1a2.73,2.73,0,0,0-1.58-.57,2.17,2.17,0,0,0-.68-2,.37.37,0,0,0,.05-.11,1.64,1.64,0,0,0,.53,0,.34.34,0,0,0,.16-.06,9.92,9.92,0,0,0,3,1.12h.05a12.91,12.91,0,0,0,1.71,3.33l4,7.6,0,.19-.13.2.12-.06.16,0h.26l0-.14.11-.14.12-.13-.16,0-.2-.07-3.94-7.41a13.83,13.83,0,0,0-1.76-3.45c.07-.12-.08-.33-.28-.45a13.87,13.87,0,0,0-3-.77.46.46,0,0,0-.15-.29,3.47,3.47,0,0,0-.75-.45l-.09-.1a2.93,2.93,0,0,0-.32-2.1l0,0h.15c.45,0,.95-.68,1.1-1.07,0-.11,0-.23,0-.35s0-.22,0-.28,0-.06,0-.1a.58.58,0,0,1,.37.12,8.72,8.72,0,0,0,.85.61c.28.17.52.13.59,0l4.4-.48.2.17.11.18a2,2,0,0,0,.12-.25,1.23,1.23,0,0,1,.22-.23l-.16-.18-.14-.27-.3.28-4.47.55a.79.79,0,0,0-.26-.26,4.45,4.45,0,0,0-1.55-.67c-.05-.13-.15-.18-.38,0a2.13,2.13,0,0,0-.6,1.31c0,.41-.15.32-.35.56l-.3-.09a2.5,2.5,0,0,0-.64-.44,1.87,1.87,0,0,0,0-1.54c.64-.43.91-1.14.77-2.41a5.92,5.92,0,0,0,.25-2.83,13.12,13.12,0,0,0-.6-2l.23-1.74.29-.18c.07,0-.54-.28-.95-.11l.28.11-.12,1.9h-.2a4.09,4.09,0,0,1,.46,2.57l-.24,0a3.69,3.69,0,0,1,.28,2.06,2.5,2.5,0,0,0-.34,1,1.93,1.93,0,0,1-.52,1.06,6.31,6.31,0,0,0-1.3-.95,8.07,8.07,0,0,1-.69-.45,2.33,2.33,0,0,0,.35-.44,2,2,0,0,0,0-1.8,7.54,7.54,0,0,0-1.94-3.33,31.1,31.1,0,0,0,3.26-1.68,1.68,1.68,0,0,0,.52-1c.06-.38-.73-.66-.94-.76a5.93,5.93,0,0,1-2.24-1.48l-.47-.57c-.13-.16-.17-.21-.36-.25a2.64,2.64,0,0,0-1.12-1.46c-.28-.21-.41,0-.43.26a1.65,1.65,0,0,0,1.15,1.56c0,.28,0,.36.26.54s.4.27.6.39a18.68,18.68,0,0,0,2.4,1.32l.89.37c-1,1.37-2.56,1.65-3.8,2.51a1.77,1.77,0,0,0-1.58-.15c.22.23.69.22.76.33l.24.38a3,3,0,0,0-2.26,1.44c0-.15-.1-.31-.06-.45.1-.41.35-.61.37-1.07-.88.74-1.05,1.18-.92,1.92-1.17,1-1.84,2.45-3.42,3.06,0-.32-.07-.65-.11-1a20.6,20.6,0,0,0-.63-2.69c-.07-.23-.13-.46-.22-.69s-.18-.3-.45-.39a1.63,1.63,0,0,0-1.17-1.54c-.28-.05-.49,0-.36.35a2.6,2.6,0,0,0,1.09,1.48.57.57,0,0,0,.14.42c.15.22.29.41.42.61a6.07,6.07,0,0,1,.82,2.57c0,.23.09,1.08.48,1.12a1.66,1.66,0,0,0,1.08-.24,31.09,31.09,0,0,0,2.43-2.7,7.69,7.69,0,0,0,1.33,3,2.07,2.07,0,0,0,1.88,1Z" transform="translate(-26.8 -131.49)"/><path class="cls-1" d="M453.68,357.64a2.52,2.52,0,0,0,.47.13,4.79,4.79,0,0,1-.41.89,5.44,5.44,0,0,0-.68,1.67,3.14,3.14,0,0,1-1-1.24,3.75,3.75,0,0,0-.74-1.18,6,6,0,0,1-.48-2.79l-.25.11a5.23,5.23,0,0,1-.22-.51c.41-.43.88-1,1.31-1.43,0,1.84.4,3.79,2,4.35ZM467.49,342a14.27,14.27,0,0,0-2.47,2.12,26.06,26.06,0,0,0-2,2.35,8.28,8.28,0,0,1-1.66,1.93,9.29,9.29,0,0,1-2.6,1.29,1.08,1.08,0,0,0-.47.07l.1.06-1.08.31h0a2.45,2.45,0,0,0-1.87-1.22c.14.38.68.61.71.77l.09.56a3.8,3.8,0,0,0-3.32.52c.05-.19,0-.41.15-.56.32-.42.7-.52,1-1-1.24.36-1.7.73-1.93,1.46a9.36,9.36,0,0,0-.38,1.95c-.52.5-1,1.06-1.52,1.56a10.81,10.81,0,0,1-.08-2.42l-.23,0-.86-2.45.28-.23c-.53-.11-1.11.37-1,.4l.39.16.92,2.22a20.36,20.36,0,0,0,.07,2.74h0a4.83,4.83,0,0,1-1.43.79c-.19-2.34-1.38-3.53-2.56-5.48-.19-.3-.2-.35-.5-.47a1.85,1.85,0,0,0-1.27-1.82c-.31-.08-.56,0-.43.37a3,3,0,0,0,1.17,1.76.57.57,0,0,0,.15.49c1.21,1.7,2.62,2.6,3,4.77.06.33.18.65.43.68a1.78,1.78,0,0,0,1.25-.22,1.36,1.36,0,0,0,.29-.21,10.91,10.91,0,0,0,1.25,3c.35,1.81,1,2.67,1.93,3a5.68,5.68,0,0,0,1,2.44l-.63.13a1.23,1.23,0,0,0-.41.21,1.81,1.81,0,0,1-.4-.18c-.41-.23-.58-.7-.82-1.08s-.32-.58-.54-.72c-.4-.24-.56-.21-.62-.07a14.26,14.26,0,0,0-2.72-.37,4.9,4.9,0,0,1-.77,0c-1.78-.37-3.65-.89-5.42-1.37l-.2-.27-.44.44.28.53.3-.23a52,52,0,0,1,5.66,1.27c.31.09.53.4.84.48a3.61,3.61,0,0,0,.93,0,8.41,8.41,0,0,1,1.54-.06c0,.08,0,.15,0,.21a1.48,1.48,0,0,0,.91,1.19c.43.21.76.4,1.14.6,0,.12.06.24.28.34l.65.31a2.7,2.7,0,0,0,.12,1.33,3.07,3.07,0,0,0,0,1.69,3.13,3.13,0,0,1-.56.59c-.56.43-1.41.64-2,1.05-.31.2-.77.44-.71.87,0,.16,0,.33.13.4-.06,1.05-.18,2.06-.18,3.12,0,.25.07.36.17.39a23,23,0,0,1-.86,8.66l-.21.35.4.25.5-.28-.18-.32a28,28,0,0,0,.62-8.73.76.76,0,0,0,.3-.54c0-.22,0-.55,0-.88a17.38,17.38,0,0,0-.24-2,10.83,10.83,0,0,0,2.06-1.23,2.29,2.29,0,0,0,1-1s0-.3.06-.54a1.18,1.18,0,1,1,1.3,1.89c-1.85,1.75-1,4.58.93,6.18.8,2.6,5.47,2.42,6.18-.36a3.79,3.79,0,0,0-.35-3.08A3.89,3.89,0,0,0,457,369a3.51,3.51,0,0,0-.31-1.33c.22,0,.47.09.61.1h.09l.07,0,.72-.16c.85-.18,1.07-.63,1.38-1.35a3,3,0,0,1,.28-.53l.05-.06c.32.33.26.51.28,1.12a2.9,2.9,0,0,0,.28,1.3,5.28,5.28,0,0,0,.37.55c.84,1.26,1.67,2.53,2.55,3.77.73,1,1.56,2,2.36,2.91l.18.38.49-.07.1-.49-.36-.23a14.06,14.06,0,0,1-2.5-2.72c-.91-1.19-1.7-2.45-2.53-3.7v-.95a2.18,2.18,0,0,0-.15-.8,4.26,4.26,0,0,0-.82-1.42.32.32,0,0,0-.38-.38,1.72,1.72,0,0,0-1.44,1.21c-.18.43-.09.56-.54.84a2.16,2.16,0,0,1-.34.17,2.91,2.91,0,0,1-.26-.29c-.19-.27-.38-.55-.56-.84a3.18,3.18,0,0,0,.11-.64l.22-.09.12-.05c.3.16.45.2.72.06,1-.53.83-1.17.79-2.14l.37.38a1.84,1.84,0,0,1,.28.48c.28.64.55.77,1.15,1.09a7,7,0,0,0,4.22,2l.2.21.42-.34-.16-.42-.47.18a5.83,5.83,0,0,1-4.1-2.14l-.27-.41a5.78,5.78,0,0,0-1-1.11c-.41-.37-.66-.69-1.15-.24a2.36,2.36,0,0,0-.62,1c-.14.59,0,.75-.29,1l-.12-.09-.48-.29a9.67,9.67,0,0,0-.35-.93c.07-.26.14-.5.21-.73,1.41-.46,2.1-1.39,2.06-3.72a9.85,9.85,0,0,0,.57-3.87,20.07,20.07,0,0,0-.49-2.68l.44-2.36a8.13,8.13,0,0,0,3-1.63,13.62,13.62,0,0,0,1.57-2,10,10,0,0,1,2.43-2,7.86,7.86,0,0,0,1-.75,4.25,4.25,0,0,0,.89-1.33c.13-.4-.13-.69-.5-.46Zm-9.93,8.53a8.37,8.37,0,0,0,1-.21l-.28,2.19h0a7.92,7.92,0,0,0-.71-2Zm-.75,11.19a3.83,3.83,0,0,0-.63-4.09,3.16,3.16,0,0,0,1-.48,2.61,2.61,0,0,0,.88-1.11,6,6,0,0,1,.09,2.78,3.81,3.81,0,0,0-.48,1.31,2.73,2.73,0,0,1-.89,1.59ZM458.1,356a4.73,4.73,0,0,0,.35-1.77,4.5,4.5,0,0,1-.11,1.82l-.24-.05Z" transform="translate(-26.8 -131.49)"/><path class="cls-1" d="M453.85,419.58c.16.23.3.46.44.69.76-.12,1.42-.44,2.22-.53a1.94,1.94,0,0,1,.72,0c.2-.72-.05-1.21-.59-2.09a4.33,4.33,0,0,1-.73-1.34,8.61,8.61,0,0,0-2.45-2.26l.25-.11c-.93-1.38-1.7-1.71-3.16-2.73l.16-.15-1.9-2.3-.38,0c.19-.45,1-.55,1-.46s-.07.39-.07.39L451,411a28.93,28.93,0,0,1,2.63,1.93,13,13,0,0,1,2.79,3.49c1.79,1.7,2.18,2.8,1.73,3.86a4.37,4.37,0,0,1,.79.94h.27c.09-.25.22-.39.35-.42,0-.56.23-1.22.82-1.4.31-.09.48,0,.78-.15-.33-.73-.84-1.86-.44-2.59l.37-4.69-.2-.34.27-.09.21-.12s.11.23.17.26a1.8,1.8,0,0,1,.21.16l-.2.07-.19.16-.43,4.66a5.11,5.11,0,0,1,.46,2.48c.16.39,0,.58-.36.88a1.67,1.67,0,0,1-.47.2,1.12,1.12,0,0,0-.77.56,2.46,2.46,0,0,1,.56,1c1-.37,1.26-.41,1.92.44.67-.24.91-.24,1.13-.1l.34-.4c1-1.3,2.07-2.48,3.16-3.71a1.42,1.42,0,0,1,.73-.48,9.26,9.26,0,0,1,4.79.13c3.1-.45,6.16-.85,9-2.38l.07-.33.7-.07.14.52-.75.19c-2.66,1.69-5.91,2-9,2.35-1.53.76-3.23.22-4.85,0l-.6.81a13.16,13.16,0,0,1-3.16,3.24l-.18.44a2.82,2.82,0,0,0,.44.27c.7-.93,1.58-.53,2.4,0a4.4,4.4,0,0,1,.5-1.08c.86-1.23,3-1.29,4.21-.81a14.73,14.73,0,0,1,1.32.78c.14.08.31.1.46.17a4.93,4.93,0,0,1,2.25,2.51,2.07,2.07,0,0,1-.35,2.12,4.76,4.76,0,0,1-3.69,1.7,4.53,4.53,0,0,1-3-.48,5.23,5.23,0,0,1-1.82-1.77,2.47,2.47,0,0,1-.23-1.44c-.85.29-1.62.39-2.18-.48-.67-.09-.83.21-1.53-.12a5,5,0,0,1-.73.54l.32.76a2.3,2.3,0,0,1,1.11,1,.34.34,0,0,1,0,.14,9.41,9.41,0,0,1,2.21,3l5.8,6.53h.31l-.1.56-.55,0,.06-.36c-1.82-2.25-3.77-4.35-5.66-6.53a7.08,7.08,0,0,1-2.37-3,2,2,0,0,1-1.16-.69.86.86,0,0,1-.55-.21,4.77,4.77,0,0,1-.92-1.23l-.21-.14-.17.05a2.51,2.51,0,0,1-.24.46,1.28,1.28,0,0,1-.7.42,3.52,3.52,0,0,0-.27.77,2.36,2.36,0,0,0,0,.88c.07.57.3.84.15,1.48a2.58,2.58,0,0,1-.74,1.17c-.27,1-.47,2.45-1.17,3.21-.35.39-.72.78-1.07,1.18a27.73,27.73,0,0,0-3.19,4.42l0,.61-.58-.14-.13-.57.42-.1a35.27,35.27,0,0,1,3.44-4.71c.09-.33.15-.66.27-1a4.88,4.88,0,0,1,.41-.9c.17-.28.4-.53.59-.8a3.47,3.47,0,0,0,.68-1.6c.07-.54.22-1.05.31-1.57a23.55,23.55,0,0,1,.52-2.37c-.14-.08-.21-.25-.14-.56l.15-.61a4.24,4.24,0,0,1-.31-.3,3.82,3.82,0,0,1-.67.26c-.08,1.32-.94,2.12-3.59,2.57a12.92,12.92,0,0,1-4.24,1.34c-1.1.12-2,.12-3.24.14l-2.57.89s-.12.28-.16.36-.65-.44-.55-.93l.28.26,2.85-.85-.05-.21c1.78,0,2.59.11,4.12-.52l-.14-.22a8.61,8.61,0,0,0,3.27-.51,4.43,4.43,0,0,1,1.35-.71c1-.45,1.46-.73,1.67-1.52l.05,0a3.05,3.05,0,0,1-1.65-1.09,2.76,2.76,0,0,1-.59.89,5.29,5.29,0,0,1-1.07,1,12.88,12.88,0,0,1-2.6,1.36,13.82,13.82,0,0,1-2.75.19,2.38,2.38,0,0,1-1.87-.86c.27-.5,1.8,0,2.24.15a2.72,2.72,0,0,1-1.35-3.27,8.67,8.67,0,0,0-.86,2.3c-.86-1,.14-2.55.78-3.36a6.14,6.14,0,0,1,3.58-2.11,7.49,7.49,0,0,1,1.49-.34,1.51,1.51,0,0,1,1.81.77Z" transform="translate(-26.8 -131.49)"/><path class="cls-1" d="M369.22,289.16a3.19,3.19,0,0,1-.3.42c.25.17.48.32.73.46a3.06,3.06,0,0,1,1.17.77,5.37,5.37,0,0,1,.62,1.15,1.9,1.9,0,0,0,.66-1,2.53,2.53,0,0,1,.44-.92,3.76,3.76,0,0,0-.05-2.08l.23.06a4,4,0,0,0-.17-2.6h.2l.33-1.87-.28-.14a1.11,1.11,0,0,1,.94.22l-.3.14-.42,1.71a13.3,13.3,0,0,1,.38,2,6,6,0,0,1-.56,2.78c0,1.4-.41,2.08-1.23,2.4a2.63,2.63,0,0,1,0,.49,2,2,0,0,1,1,1l.19.06c.21-.24.3-.15.36-.55a2.14,2.14,0,0,1,.61-1.31c.24-.19.34-.14.39,0a4.74,4.74,0,0,1,1.54.69.76.76,0,0,1,.25.27l4.48-.49.3-.27.14.27.16.19s-.21.16-.23.23a1.72,1.72,0,0,1-.12.24l-.11-.19-.19-.17-4.41.42c-.07.14-.31.18-.59,0s-.56-.4-.85-.62a.54.54,0,0,0-.36-.13.87.87,0,0,1,0,.1c0,.06,0,.28,0,.28s.06.25,0,.35c-.16.39-.67,1-1.12,1.06h-.14l-.11.09a6.56,6.56,0,0,1,.12.75.88.88,0,0,1,.57.58l.15,0a.37.37,0,0,1,.28.19,13.66,13.66,0,0,1,3.05-.35c.22,0,.43.17.42.3a14.26,14.26,0,0,1,3.27,2.1l7.09,4.39.21,0,.12-.1,0,.18,0,.17.06.13-.23.13-.11.11-.08.12v-.24l-.08-.18-7.21-4.53a13.38,13.38,0,0,1-3.19-2.05h-.06a10.12,10.12,0,0,1-3.2.05.5.5,0,0,1-.1.11l-.11.08c.75.32.91.71,1.14,1.45a3.06,3.06,0,0,1,2.41-.05,4.77,4.77,0,0,1,2.38,3,4.37,4.37,0,0,1,1,2.1,3.81,3.81,0,0,1-.14,2,2,2,0,0,1-1.66,1.37,4.73,4.73,0,0,1-3.06-1,4.32,4.32,0,0,1-.77-1.11c-1.16-1.08-2.15-2.44-2-3.86a2.88,2.88,0,0,1,.57-1.49,2.36,2.36,0,0,1-1.1-1.63l-.23,0a2.16,2.16,0,0,1-.46.66.41.41,0,0,1-.14.08,10.54,10.54,0,0,1-1.18,3l-.06.07a12.1,12.1,0,0,1,.92,3.46l2.16,8.31.15.13.22.05-.12.05-.15.07-.18.19-.11-.09-.17,0H373l.13-.1.1-.18-2.06-8.15a13.37,13.37,0,0,1-1-3.63.48.48,0,0,1-.08-.29l0,0,0,0a1.09,1.09,0,0,1,0-.18,14.16,14.16,0,0,1,1.4-2.74.43.43,0,0,1-.11-.31,5.06,5.06,0,0,1,.21-1.07,2.9,2.9,0,0,1-1.59-1.24.6.6,0,0,1-.21.09.54.54,0,0,1-.07.13c-.24.39-1.06.5-1.46.44-.12,0-.2-.13-.29-.2l-.24-.13-.1,0a.62.62,0,0,0-.08.38,9.32,9.32,0,0,1,.1,1c0,.33-.14.52-.3.52l-2.59,3.62.05.26.1.19a1.59,1.59,0,0,1-.27,0,1.23,1.23,0,0,0-.31.08l-.08-.23-.16-.26.39-.12,2.68-3.66a.86.86,0,0,1-.1-.35,4.84,4.84,0,0,1,.2-1.7c-.09-.1-.08-.22.2-.32a2.08,2.08,0,0,1,1.43.12c.37.16.34,0,.66,0a1.77,1.77,0,0,1,.18-.59,2.91,2.91,0,0,1,0-.67,2.17,2.17,0,0,1-1.09-.41c-.52.58-1.25.74-2.47.41a5.81,5.81,0,0,1-2.81-.15,13.27,13.27,0,0,1-1.83-.89l-1.73,0-.21.26c-.06.06-.2-.58,0-1l.07.31,1.87.15.05-.2c1,.52,1.38.9,2.44.83v-.24a3.6,3.6,0,0,0,2,.57,2.58,2.58,0,0,1,1-.19,1.86,1.86,0,0,0,1.16-.41,3.84,3.84,0,0,1-.38-1.89c0-.22,0-.44,0-.67a2.32,2.32,0,0,1-.75.2,2,2,0,0,1-1.61-.76,8.65,8.65,0,0,1-1.11-1.25,15,15,0,0,1-.22,2.6,1.05,1.05,0,0,1-.63.72c-.29.12-.76-.82-.91-1.07a9.81,9.81,0,0,0-1.9-2.56l-.6-.52a.88.88,0,0,1-.32-.41,3,3,0,0,1-1.52-1.22c-.26-.32-.15-.49.07-.54.63-.05,1.15.41,1.61,1.25.23,0,.29,0,.52.25s.34.46.5.69c.63.9,1.27,1.8,1.83,2.78.19.35.38.7.58,1.05a8.2,8.2,0,0,0,.65-3.54,7.34,7.34,0,0,1-.71-1.61,1.79,1.79,0,0,1,.52-1.71c.1.3-.11.73-.05.83l.24.39a3,3,0,0,1,2.27-1.42,1.35,1.35,0,0,0-.38-.26c-.4-.08-.68.05-1.11-.12,1.15-.53,1.6-.44,2.28.14a12.27,12.27,0,0,1,1,.91,7.75,7.75,0,0,0,3.28.37l-.78-.75c-.73-.71-1.37-1.48-2-2.23l-.49-.6c-.2-.26-.16-.31-.11-.5-.63-.6-.91-1.15-.74-1.67.09-.17.27-.22.48.08a2.81,2.81,0,0,1,.74,1.58.89.89,0,0,1,.28.37l.32.64a9.38,9.38,0,0,0,1.81,2.24c.18.19.89.83.73,1a.89.89,0,0,1-.76.34,15,15,0,0,1-2.38-.5,5.56,5.56,0,0,1,.86,1.32,2.13,2.13,0,0,1,.05,2.13Z" transform="translate(-26.8 -131.49)"/><path class="cls-1" d="M320.62,314.21a2.58,2.58,0,0,1,0,.78c.28,0,.53-.06.78-.11a3.26,3.26,0,0,1,1.4-.16,3.6,3.6,0,0,1,1.08.52,1.83,1.83,0,0,0-.25-1.24,2.59,2.59,0,0,1-.35-1,3.65,3.65,0,0,0-1.5-1.42l.2-.12c-.5-1-1-1.1-2-1.69l.14-.14L319,308.13l-.29.1c.21-.4.83-.6.8-.53l-.11.32.92,1.49a13.06,13.06,0,0,1,1.69,1.13,5.79,5.79,0,0,1,1.58,2.34c1.06,1,1.21,1.84.78,2.72.16.16.32.33.46.5a2.1,2.1,0,0,1,1.14,0,1.82,1.82,0,0,1,.52-.15c.06-.32.19-.29,0-.67a2.11,2.11,0,0,1-.11-1.44c.1-.28.22-.29.32-.2a4.51,4.51,0,0,1,1.68-.18.73.73,0,0,1,.35.1l3.63-2.69.13-.38.26.16.23.08a1.17,1.17,0,0,0-.09.31,1.69,1.69,0,0,1,0,.28l-.19-.11-.25-.05-3.61,2.59c0,.16-.18.31-.51.3s-.68-.06-1-.11a.51.51,0,0,0-.38.08l0,.09a2.6,2.6,0,0,0,.12.24c.06.1.18.18.2.3.05.41-.07,1.24-.45,1.48l-.13.07a1.6,1.6,0,0,1-.11.25,3.93,3.93,0,0,1,.6.53.89.89,0,0,1,.64,0,1.37,1.37,0,0,1,.29-.2.39.39,0,0,1,.34,0,14.06,14.06,0,0,1,2.13-2.23c.2-.12.44-.14.52,0a14,14,0,0,1,3.84-.48l8.24-1.17.13-.17,0-.15.08.16.09.15.12.07-.1.24,0,.17,0,.13-.14-.19-.17-.08-8.43,1.14a13.34,13.34,0,0,1-3.75.47l0,0a10,10,0,0,1-2.45,2.1.38.38,0,0,1,0,.15,1.5,1.5,0,0,1-.15.38,1.83,1.83,0,0,1,1.8.09,3.1,3.1,0,0,1,1.43-1.82,4.61,4.61,0,0,1,3.8,0,4.27,4.27,0,0,1,2.26.49,3.72,3.72,0,0,1,1.49,1.38,2,2,0,0,1,0,2.16,4.73,4.73,0,0,1-2.66,1.81,4.06,4.06,0,0,1-1.34-.08c-1.55.24-3.23.18-4.26-.8a2.89,2.89,0,0,1-.82-1.47,2.13,2.13,0,0,1-2.05-.34l-.1.07a1.73,1.73,0,0,1,.13.52.43.43,0,0,1,0,.17,10.25,10.25,0,0,1,1.6,2.81l0,.05a12.45,12.45,0,0,1,3.54,1.13l8.08,2.66.19-.05.17-.17,0,.14v.16l0,.26-.13,0-.11.13-.11.14v-.15l-.1-.19L333.43,324a14.07,14.07,0,0,1-3.67-1.16c-.11.08-.34,0-.49-.21A14.42,14.42,0,0,1,328,319.8a.4.4,0,0,1-.31-.11,3.35,3.35,0,0,1-.57-.66L327,319a2.83,2.83,0,0,1-2.1,0l0,0a.4.4,0,0,1,0,.15c.05.45-.51,1.06-.85,1.28-.11.06-.24,0-.36,0l-.26.06-.1,0a.61.61,0,0,0,.18.35,10.33,10.33,0,0,1,.74.74c.22.25.22.5.1.59l.27,4.47.2.16.2.08a1.3,1.3,0,0,1-.22.17c-.06,0-.18.26-.18.26l-.21-.13-.29-.1.22-.34-.23-4.55a.7.7,0,0,1-.29-.21,4.55,4.55,0,0,1-.92-1.43c-.14,0-.2-.12-.05-.39a2.14,2.14,0,0,1,1.17-.81c.4-.12.29-.2.5-.45a1,1,0,0,1-.14-.28,2.72,2.72,0,0,1-.55-.57,1.78,1.78,0,0,1-1.5.28c-.3.71-.95,1.1-2.22,1.18a5.73,5.73,0,0,1-2.71.73,12.74,12.74,0,0,1-2-.26l-1.65.53-.13.31c0,.08-.36-.49-.27-.93l.16.27,1.82-.45v-.2a3.94,3.94,0,0,0,2.58,0l-.08-.23a3.54,3.54,0,0,0,2.06-.08,2.4,2.4,0,0,1,.88-.5,1.88,1.88,0,0,0,.95-.7A5.86,5.86,0,0,1,320.6,317c-.18-.2-.35-.4-.56-.6a2.19,2.19,0,0,1-.38.42,2,2,0,0,1-1.75.33,7.33,7.33,0,0,1-3.57-1.37,29.45,29.45,0,0,1-1.08,3.54,1.57,1.57,0,0,1-.88.68c-.36.14-.77-.61-.9-.8a6,6,0,0,0-1.82-2c-.2-.13-.42-.24-.64-.38s-.23-.13-.31-.31a2.61,2.61,0,0,1-1.61-.87c-.25-.25-.09-.41.19-.47A1.62,1.62,0,0,1,309,316c.28,0,.35-.06.57.16s.33.35.48.53a18.66,18.66,0,0,1,1.7,2.17c.18.27.34.55.51.82,1.17-1.22,1.17-2.83,1.8-4.21a1.83,1.83,0,0,1-.42-1.55c.26.18.34.65.45.7l.41.17a3.09,3.09,0,0,1,1-2.49,1.13,1.13,0,0,0-.45,0c-.38.17-.53.45-1,.56.57-1,1-1.26,1.71-1.24.76-1.34,2.08-2.26,2.4-3.94l-1,0a17.79,17.79,0,0,1-2.73-.16c-.24,0-.47-.05-.71-.1s-.32-.13-.46-.38a1.62,1.62,0,0,1-1.7-.91c-.1-.26-.06-.49.28-.42a2.6,2.6,0,0,1,1.63.83c.19,0,.24,0,.43.08s.46.21.67.31a5.82,5.82,0,0,0,2.64.38c.24,0,1.07-.09,1.17.28a1.6,1.6,0,0,1,0,1.12,28.09,28.09,0,0,1-2.21,2.88,7.42,7.42,0,0,1,3.15.81,2.12,2.12,0,0,1,1.27,1.71Z" transform="translate(-26.8 -131.49)"/><path class="cls-1" d="M321.62,262.18a2.57,2.57,0,0,0,.39-.35,8.17,8.17,0,0,1,.52.68c.36.54.54.9.89,1.1a4.89,4.89,0,0,0,1.2.49,1.89,1.89,0,0,1-.93.78,2.38,2.38,0,0,0-.86.54,3.54,3.54,0,0,1-2.05.18l.08.22c-1,.45-1.48.23-2.58.11l0,.2-1.8.53-.17-.26a1.11,1.11,0,0,0,.31.92l.11-.32,1.63-.61a13.32,13.32,0,0,0,2,.17,5.84,5.84,0,0,0,2.68-.86c1.37-.15,2-.64,2.22-1.5a4,4,0,0,0,.49,0,2,2,0,0,0,1.07.9.75.75,0,0,0,.08.18c-.21.24-.11.33-.51.42a2.16,2.16,0,0,0-1.21.76c-.16.26-.1.36,0,.39a4.49,4.49,0,0,0,.85,1.48.72.72,0,0,0,.28.22v4.55l-.24.33.29.12.19.14a1.21,1.21,0,0,1,.2-.26,1.13,1.13,0,0,0,.23-.15l-.19-.09-.19-.17-.06-4.48c.12-.08.13-.33-.07-.59s-.45-.52-.7-.78a.61.61,0,0,1-.17-.36l.1,0,.27,0a.82.82,0,0,0,.35,0c.36-.2.95-.78.92-1.24a.77.77,0,0,0,0-.15l.07-.11a5.66,5.66,0,0,0,.75,0,.78.78,0,0,1,.67.65.37.37,0,0,0,.22.27,14,14,0,0,0,0,3.1c.05.22.21.41.34.39a13.74,13.74,0,0,0,2.42,3.06l5.08,6.66,0,.21-.08.13.17-.05.17-.05.13,0,.1-.24.1-.13.1-.09-.23,0-.18-.06-5.24-6.77a13.11,13.11,0,0,0-2.36-3,.13.13,0,0,0,0-.06,10.59,10.59,0,0,0-.3-3.23.27.27,0,0,0,.1-.11,1.27,1.27,0,0,0,.07-.12,1.77,1.77,0,0,0,1.55,1,3.12,3.12,0,0,0,.21,2.43,4.63,4.63,0,0,0,3.19,2.07,4.27,4.27,0,0,0,2.18.81,3.63,3.63,0,0,0,2-.36,2,2,0,0,0,1.16-1.81,4.78,4.78,0,0,0-1.28-3,4,4,0,0,0-1.18-.66c-1.19-1-2.63-1.9-4-1.63a2.82,2.82,0,0,0-1.4.73,2.36,2.36,0,0,0-1.72-.93,1.32,1.32,0,0,0-.05-.23,2.08,2.08,0,0,0,.6-.53.29.29,0,0,0,.06-.15,10.31,10.31,0,0,0,2.85-1.52l.06-.06a11.82,11.82,0,0,0,3.51.55l8.4,1.28.15.13.07.22,0-.13.06-.15.16-.21-.1-.1,0-.17,0-.17-.07.13-.17.13-8.24-1.2a13.18,13.18,0,0,0-3.68-.61.44.44,0,0,0-.29-.05v0l0,0a.59.59,0,0,0-.17,0,13,13,0,0,0-2.55,1.7.35.35,0,0,0-.31-.08,4.11,4.11,0,0,0-1,.33,2.92,2.92,0,0,0-1.38-1.47,1.5,1.5,0,0,0,.06-.22l.12-.09a1.76,1.76,0,0,0,.27-1.52c0-.11-.15-.18-.22-.27a1.53,1.53,0,0,1-.15-.23.36.36,0,0,1-.05-.09.58.58,0,0,1,.37-.12,9,9,0,0,0,1,0c.33,0,.5-.2.48-.35l3.28-3,.26,0,.2.08s0-.2,0-.27a1.12,1.12,0,0,1,0-.32l-.24,0-.27-.13-.08.4-3.31,3.09a.69.69,0,0,0-.35-.06,4.38,4.38,0,0,0-1.65.38c-.11-.08-.23-.06-.3.23a2.13,2.13,0,0,0,.27,1.42c.2.36.07.35,0,.67a1.85,1.85,0,0,0-.56.24,3,3,0,0,0-.65,0,2.35,2.35,0,0,0-.53-1.06c.51-.57.59-1.33.14-2.52a6,6,0,0,0-.46-2.81,14,14,0,0,0-1.06-1.74l-.21-1.74.23-.24c.06-.06-.59-.14-1,.13l.31,0,.35,1.86-.19.07c.61.93,1,1.29,1.08,2.37l-.23,0a3.75,3.75,0,0,1,.77,1.93,2.5,2.5,0,0,0-.08,1,1.87,1.87,0,0,1-.28,1.21,3.73,3.73,0,0,0-1.9-.18c-.22,0-.43,0-.66,0a2.69,2.69,0,0,0,.12-.78,2,2,0,0,0-.93-1.53,8.5,8.5,0,0,0-1.35-1,14.69,14.69,0,0,0,2.54-.5,1,1,0,0,0,.64-.71c.08-.3-.89-.68-1.15-.8a9.84,9.84,0,0,1-2.73-1.63c-.18-.17-.36-.36-.57-.55a.91.91,0,0,0-.44-.28,3.08,3.08,0,0,0-1.36-1.4c-.34-.22-.5-.09-.53.14,0,.64.53,1.11,1.4,1.48,0,.24,0,.3.31.49l.74.44a30,30,0,0,0,2.93,1.53l1.08.47a7.85,7.85,0,0,1-3.4,1,7,7,0,0,0-1.66-.54,1.78,1.78,0,0,0-1.63.7c.31.08.71-.18.82-.13l.4.19a3.1,3.1,0,0,0-1.15,2.44c-.1-.12-.25-.21-.29-.35-.13-.4,0-.7-.25-1.11-.39,1.21-.25,1.65.39,2.28a11.8,11.8,0,0,0,1,.89,8,8,0,0,1,.72,3.26l-.82-.7c-.79-.65-1.61-1.22-2.42-1.78l-.64-.43c-.28-.17-.32-.13-.5,0-.66-.57-1.23-.79-1.72-.56-.16.1-.19.28.13.47a2.79,2.79,0,0,0,1.64.56.73.73,0,0,0,.39.25l.66.25a9.47,9.47,0,0,1,2.4,1.58c.2.16.91.8,1.09.62a.89.89,0,0,0,.26-.79,14.61,14.61,0,0,0-.75-2.34,5.56,5.56,0,0,0,1.39.72,2.08,2.08,0,0,0,2.1-.18Z" transform="translate(-26.8 -131.49)"/><path class="cls-1" d="M276.45,273.9a2.73,2.73,0,0,0,.48-.1,4.6,4.6,0,0,1,0,1,6,6,0,0,0,.1,1.81,3.13,3.13,0,0,1-1.4-.69,3.67,3.67,0,0,0-1.17-.74,5.86,5.86,0,0,1-1.63-2.31l-.18.21c-.16-.13-.29-.25-.42-.37.19-.56.39-1.24.57-1.85.75,1.67,2,3.24,3.64,3.06Zm5.77-20.13a14,14,0,0,0-1.32,3,23.27,23.27,0,0,0-.77,3,8.26,8.26,0,0,1-.68,2.47,9.44,9.44,0,0,1-1.79,2.3,1,1,0,0,0-.39.27h.11c-.27.26-.55.51-.83.76h0a2.42,2.42,0,0,0-2.2-.28c.28.28.88.25,1,.38l.33.47a3.83,3.83,0,0,0-2.78,1.92,1.63,1.63,0,0,1-.1-.57c.11-.51.41-.78.42-1.36-1,.87-1.22,1.41-1.12,2.16a9.85,9.85,0,0,0,.5,1.93c-.26.68-.44,1.39-.7,2.07a11.17,11.17,0,0,1-1.11-2.15l-.19.13-1.83-1.84.16-.32c-.53.12-.85.81-.75.81l.41,0,1.79,1.6a19.67,19.67,0,0,0,1.24,2.43h0a4.46,4.46,0,0,1-.95,1.33c-1.17-2-2.75-2.57-4.65-3.81-.3-.19-.33-.23-.65-.21a1.84,1.84,0,0,0-1.93-1.08c-.31.06-.51.24-.23.52a3,3,0,0,0,1.82,1.07.56.56,0,0,0,.34.38c1.82,1,3.47,1.2,4.76,3,.19.27.43.51.67.43a1.84,1.84,0,0,0,1-.74,3,3,0,0,0,.17-.32,10.73,10.73,0,0,0,2.4,2.14c1.09,1.47,2,2,3,1.88a5.62,5.62,0,0,0,1.93,1.78,5,5,0,0,0-.52.39,1.36,1.36,0,0,0-.28.36,1.63,1.63,0,0,1-.44,0,2.68,2.68,0,0,1-1.19-.62c-.38-.23-.54-.38-.8-.41-.47,0-.6.06-.59.21a14.72,14.72,0,0,0-2.61.85,5.38,5.38,0,0,1-.71.3c-1.77.45-3.67.8-5.47,1.14l-.3-.16-.21.59.48.36.17-.34a52.62,52.62,0,0,1,5.65-1.33c.31-.06.64.13,1,.06a3.57,3.57,0,0,0,.86-.36,7.72,7.72,0,0,1,1.36-.73,1.36,1.36,0,0,1,.12.17,1.52,1.52,0,0,0,1.34.68c.47,0,.85,0,1.28,0,0,.12.16.2.4.19h.72a2.65,2.65,0,0,0,.67,1.15,2.94,2.94,0,0,0,.7,1.54,3.41,3.41,0,0,1-.26.78c-.33.63-1,1.2-1.39,1.84-.19.31-.51.73-.27,1.09.1.14.18.29.29.31.39,1,.72,1.93,1.17,2.89.11.22.22.29.33.28a22.74,22.74,0,0,1,2.92,8.18l0,.4.46,0,.34-.46-.3-.21a28.15,28.15,0,0,0-3.18-8.15.75.75,0,0,0,0-.61c-.08-.21-.27-.49-.41-.78-.3-.6-.73-1.15-1.09-1.72a10,10,0,0,0,1.33-2,2.27,2.27,0,0,0,.43-1.37l-.18-.51a2.8,2.8,0,0,0,.4-.59,2.58,2.58,0,0,0,1.58,1.72c-.92,2.39,1,4.59,3.48,5.17,1.85,2,6-.21,5.43-3a3.77,3.77,0,0,0-1.64-2.62,3.87,3.87,0,0,0-6-1.27,3.66,3.66,0,0,0-.84-1.07,5.63,5.63,0,0,0,.59-.17h0l0,0,.05,0,.06-.05.58-.46a1.78,1.78,0,0,0,.65-1.82,4,4,0,0,1,0-.6s0-.05,0-.08c.43.17.46.35.74.89a2.78,2.78,0,0,0,.81,1.05,3.92,3.92,0,0,0,.56.33c1.3.77,2.59,1.56,3.92,2.28,1.09.6,2.24,1.09,3.37,1.6l.32.26.42-.28-.12-.48-.42-.05a13.65,13.65,0,0,1-3.42-1.36c-1.33-.68-2.59-1.46-3.87-2.23l-.4-.86a2,2,0,0,0-.47-.65,4,4,0,0,0-1.35-.92.31.31,0,0,0-.5-.18,1.73,1.73,0,0,0-.79,1.72c0,.47.16.55-.12,1a1.76,1.76,0,0,1-.24.3,2.78,2.78,0,0,1-.35-.14c-.3-.16-.58-.34-.87-.51a2.75,2.75,0,0,0-.18-.63l.17-.17a.76.76,0,0,0,.08-.11c.34,0,.49,0,.68-.26.7-.93.24-1.41-.21-2.27l.5.18a1.77,1.77,0,0,1,.46.31,1.89,1.89,0,0,0,1.5.48,7,7,0,0,0,4.66,0l.27.1.24-.49-.33-.31-.34.37a5.84,5.84,0,0,1-4.62-.14l-.42-.25a5.6,5.6,0,0,0-1.36-.57c-.52-.16-.89-.33-1.14.29a2.46,2.46,0,0,0-.11,1.2c.12.59.31.69.15,1l-.14,0-.56,0c-.19-.21-.43-.42-.71-.68-.05-.26-.09-.51-.13-.75,1.08-1,1.3-2.17.26-4.26a9.69,9.69,0,0,0-1.13-3.73,20.91,20.91,0,0,0-1.59-2.21l-.62-2.31a8.24,8.24,0,0,0,2-2.79,14,14,0,0,0,.55-2.5,10,10,0,0,1,1.34-2.88,9.45,9.45,0,0,0,.61-1.13,4.1,4.1,0,0,0,.23-1.59c-.05-.42-.41-.56-.64-.19Zm-5.3,12c.29-.2.56-.41.83-.63l.68,2.09,0,0a8.29,8.29,0,0,0-1.48-1.48ZM281,276.22a3.79,3.79,0,0,0-2.32-3.41,3.07,3.07,0,0,0,.72-.88,2.64,2.64,0,0,0,.32-1.39A5.93,5.93,0,0,1,281,273a4.15,4.15,0,0,0,.13,1.39,2.73,2.73,0,0,1-.12,1.82Zm-1.28-5.72a4.93,4.93,0,0,0-.45-1.74,4.3,4.3,0,0,1,.68,1.68l-.23.06Z" transform="translate(-26.8 -131.49)"/><path class="cls-1" d="M222.18,216.29a7.92,7.92,0,0,0,.75-.31c.55.56.9,1.2,1.5,1.75a2,2,0,0,0,.6.4c-.25.7-.73,1-1.68,1.35a4.48,4.48,0,0,0-1.37.66,8.5,8.5,0,0,1-3.3.39l.14.23c-1.55.58-2.36.4-4.13.37l0,.21-2.88.75-.28-.26c-.11.48.49,1,.53.95l.17-.36,2.6-.8a31.55,31.55,0,0,0,3.24,0,13.18,13.18,0,0,0,4.29-1.19c2.43-.33,3.38-1,3.63-2.13a4.11,4.11,0,0,0,1.18-.29l.21.16a.63.63,0,0,0,.05.55,1.44,1.44,0,0,0-.14,1.62c.19.26.36.33.54.59-.68.39-1.75,1-1.85,1.84l-2.4,4-.36.16.17.23.1.22a.92.92,0,0,1,.29-.11,1.71,1.71,0,0,0,.26,0l-.12-.17-.07-.24,2.35-4a5.05,5.05,0,0,0,1.79-1.74c.36-.23.36-.46.22-.93a1.5,1.5,0,0,0-.26-.44,1.2,1.2,0,0,1-.31-.92,2.28,2.28,0,0,0,1.06-.5c.58.87.78,1.06,1.81.77.41.59.6.72.86.74l.05.53c.06,1.65.25,3.23.43,4.87a1.53,1.53,0,0,0,.31.83,9.39,9.39,0,0,0,4,2.71c2.26,2.19,4.52,4.32,5.93,7.23l-.13.31.52.47.41-.35-.5-.59c-1.18-2.94-3.62-5.13-5.92-7.19-.8-1.51-2.5-2.08-3.93-2.86l0-1a13.27,13.27,0,0,0-.7-4.49l.11-.47a3.44,3.44,0,0,1,.51,0c0,1.16,1,1.36,1.94,1.42a4.75,4.75,0,0,0-.21,1.18c0,1.5,1.69,2.81,2.95,3.13a13,13,0,0,0,1.53.15c.16,0,.31.1.47.13a4.86,4.86,0,0,0,3.27-.71,2.07,2.07,0,0,0,.94-1.94,4.85,4.85,0,0,0-2-3.55,4.58,4.58,0,0,0-2.73-1.39,5.1,5.1,0,0,0-2.5.37,2.33,2.33,0,0,0-1,1c-.53-.73-1.09-1.27-2.06-.89-.59-.32-.55-.66-1.3-.81a5.21,5.21,0,0,0-.29-.87l.7-.43a2.17,2.17,0,0,0,1.49-.17.28.28,0,0,0,.09-.1,9.22,9.22,0,0,0,3.51-1.1l8.47-1.89.27.17.23-.51-.42-.36-.16.33c-2.77.75-5.57,1.31-8.36,2a7,7,0,0,0-3.68,1.07,2.06,2.06,0,0,0-1.34-.12.86.86,0,0,0-.57-.15,5.1,5.1,0,0,0-1.45.45H230l-.1-.13a3.09,3.09,0,0,0,.07-.52,1.3,1.3,0,0,0-.33-.75,4.2,4.2,0,0,1,.22-.79,2.36,2.36,0,0,1,.49-.72c.39-.43.73-.51,1-1.12a2.59,2.59,0,0,0,.07-1.39c.34-.94,1-2.26.9-3.29-.06-.53-.13-1.06-.19-1.59a27.77,27.77,0,0,1,0-5.47l.32-.53-.55-.22-.44.39.28.32a37,37,0,0,0,.09,5.86c-.12.32-.26.63-.35.95a4.73,4.73,0,0,0-.18,1c0,.34,0,.67,0,1a3.63,3.63,0,0,1-.38,1.71c-.25.47-.42,1-.65,1.45a22.28,22.28,0,0,0-.94,2.24c-.16,0-.32.07-.44.37l-.23.59a2.18,2.18,0,0,0-.42.05,4.17,4.17,0,0,0-.4-.6c.7-1.13.46-2.28-1.43-4.21a13.22,13.22,0,0,0-2.67-3.58,27.87,27.87,0,0,0-2.56-2L219.52,203s0-.29.08-.38-.79,0-1,.42l.38,0,1.82,2.37-.16.14c1.42,1.07,2.17,1.43,3,2.84l-.25.1a8.68,8.68,0,0,1,2.37,2.35,4.6,4.6,0,0,0,.69,1.36c.54,1,.76,1.46.48,2.23l0,.05a3,3,0,0,0-2-.08,2.94,2.94,0,0,0,0-1.07,5.42,5.42,0,0,0-.29-1.44,14.2,14.2,0,0,0-1.33-2.64,14.2,14.2,0,0,0-2.13-1.77,2.37,2.37,0,0,0-2-.4c-.07.56,1.49,1,1.91,1.2a2.66,2.66,0,0,0-3,1.86,8.6,8.6,0,0,1,.62-2.38c-1.26.3-1.35,2.16-1.3,3.19a6.32,6.32,0,0,0,1.69,3.83,9.24,9.24,0,0,0,1,1.15,1.51,1.51,0,0,0,1.93.44Z" transform="translate(-26.8 -131.49)"/><path class="cls-1" d="M228.59,257.56a2.68,2.68,0,0,0,.49-.61,6.87,6.87,0,0,1,.51.61c.39.52.58.87.94,1.05a3.68,3.68,0,0,0,1.16.34,1.82,1.82,0,0,1-1,.76,2.34,2.34,0,0,0-.89.49,3.71,3.71,0,0,1-2.06.05l.07.23a4,4,0,0,1-2.58-.06v.2l-1.83.42-.15-.27c-.1.44.23,1,.26.93s.12-.31.12-.31l1.67-.5a12.69,12.69,0,0,0,2,.29,5.79,5.79,0,0,0,2.73-.69c1.46-.07,2.11-.57,2.36-1.51.23,0,.45,0,.67-.07a2.18,2.18,0,0,0,.86.76,2.15,2.15,0,0,0,.29.46c-.16.28,0,.34-.41.52a2.11,2.11,0,0,0-1,1c-.1.28,0,.37.11.37a4.71,4.71,0,0,0,1.14,1.26,1,1,0,0,0,.33.16l1,4.44-.16.38.3.05.22.09a1.23,1.23,0,0,1,.14-.29,1.82,1.82,0,0,0,.2-.2l-.22,0-.22-.13-1-4.36c.11-.11.07-.36-.19-.57a10,10,0,0,0-.84-.61.56.56,0,0,1-.24-.31l.09,0a2.54,2.54,0,0,1,.25-.1c.12,0,.26,0,.35-.09.31-.27.76-1,.63-1.41a.69.69,0,0,0,0-.13,1.15,1.15,0,0,0,.08-.26,5.31,5.31,0,0,0,.8,0,.91.91,0,0,0,.46.44,2,2,0,0,0,.09.35.43.43,0,0,0,.23.26,14.52,14.52,0,0,0,.13,3.09c.07.22.24.41.37.38a14.19,14.19,0,0,0,2.55,2.93l5.4,6.4v.22l-.07.13.16-.06.17-.05.13,0,.09-.25.09-.13.1-.1-.22.06-.19-.06-5.56-6.5a13.07,13.07,0,0,0-2.5-2.86.13.13,0,0,0,0-.06,10.43,10.43,0,0,0-.45-3.21l.09-.12a1.15,1.15,0,0,0,.14-.38,1.85,1.85,0,0,0,1.41,1.14,3.06,3.06,0,0,0-.12,2.32,4.64,4.64,0,0,0,2.82,2.56,4.39,4.39,0,0,0,2,1.16,3.75,3.75,0,0,0,2,0,2,2,0,0,0,1.44-1.6,4.87,4.87,0,0,0-.8-3.14,4.14,4.14,0,0,0-1.06-.84c-1-1.22-2.3-2.3-3.71-2.26a2.76,2.76,0,0,0-1.58.55,2.15,2.15,0,0,0-1.76-1.12l0-.12a1.29,1.29,0,0,0,.44-.31.29.29,0,0,0,.08-.14,10.16,10.16,0,0,0,3-1l0,0a12.83,12.83,0,0,0,3.4,1.53l7.79,3.43.11.16,0,.23.06-.12.1-.13.2-.16-.07-.12V262l-.1.11-.2.08-7.65-3.31a13.71,13.71,0,0,0-3.51-1.59c0-.13-.27-.21-.5-.17a13.23,13.23,0,0,0-2.79,1.27.41.41,0,0,0-.3-.14,3.7,3.7,0,0,0-.85.12l-.13,0a2.92,2.92,0,0,0-1.55-1.44v0l.12-.09a1.78,1.78,0,0,0,.2-1.53c0-.11-.16-.17-.24-.26l-.16-.22-.06-.09a.61.61,0,0,1,.37-.14c.36,0,.68,0,1-.06s.49-.23.46-.38l3.14-3.16h.25l.21.08s0-.2-.06-.27a.93.93,0,0,1,0-.32l-.24,0-.28-.12-.06.4-3.15,3.25a.94.94,0,0,0-.36,0,4.56,4.56,0,0,0-1.63.46c-.12-.08-.23-.05-.29.25a2.16,2.16,0,0,0,.34,1.4c.22.35.09.34.08.67a1.31,1.31,0,0,0-.29.11,2.62,2.62,0,0,0-.78.06,1.83,1.83,0,0,0-.94-1.21c.24-.74,0-1.46-.89-2.37a5.79,5.79,0,0,0-1.55-2.37,12.21,12.21,0,0,0-1.67-1.15l-.9-1.5.12-.32c0-.08-.6.12-.81.51l.29-.09,1.07,1.55-.14.14c.93.6,1.46.75,1.94,1.72l-.21.12a3.62,3.62,0,0,1,1.49,1.44,2.51,2.51,0,0,0,.34,1,1.92,1.92,0,0,1,.24,1.16,5.81,5.81,0,0,0-1.6.08c-.26,0-.52.06-.81.08a2.16,2.16,0,0,0,0-.57,2,2,0,0,0-1.09-1.42,7.32,7.32,0,0,0-3.57-1.37,30.74,30.74,0,0,0,1.51-3.37,1.56,1.56,0,0,0-.21-1.1c-.18-.35-1-.07-1.2,0a5.87,5.87,0,0,1-2.66.26l-.72-.15a.52.52,0,0,0-.44,0,2.56,2.56,0,0,0-1.77-.43c-.35,0-.34.24-.18.47a1.62,1.62,0,0,0,1.87.49c.18.21.22.28.53.26s.47,0,.71-.07a17.42,17.42,0,0,0,2.69-.48c.31-.08.62-.19.93-.27.07,1.69-1,2.89-1.42,4.35a1.87,1.87,0,0,0-1.34.88c.32,0,.68-.26.8-.22l.42.15a3.1,3.1,0,0,0-.87,2.55c-.11-.11-.27-.18-.33-.32-.17-.38-.1-.69-.37-1.07-.23,1.14-.09,1.59.47,2.08-.31,1.5.07,3.08-.79,4.55-.23-.22-.45-.46-.68-.68a18.54,18.54,0,0,0-2.15-1.71c-.2-.14-.39-.28-.6-.4s-.33-.12-.59,0a1.59,1.59,0,0,0-1.87-.46c-.25.13-.37.32-.07.5a2.67,2.67,0,0,0,1.77.47c.11.16.17.17.37.23l.7.21a6,6,0,0,1,2.23,1.5c.17.16.74.78,1.06.57a1.63,1.63,0,0,0,.7-.87,28.09,28.09,0,0,0,.23-3.64,7.53,7.53,0,0,0,2.9,1.5,2.07,2.07,0,0,0,2.06-.42Z" transform="translate(-26.8 -131.49)"/><path class="cls-1" d="M167,187.1a2.49,2.49,0,0,0,.74-.21,7.41,7.41,0,0,1,.07.8,3.47,3.47,0,0,0,.16,1.41,3.61,3.61,0,0,0,.75.94,1.76,1.76,0,0,1-1.25,0,2.49,2.49,0,0,0-1-.13,3.61,3.61,0,0,1-1.71-1.16l-.08.22c-1-.27-1.29-.75-2.06-1.55l-.11.17-1.73-.73,0-.31a1.11,1.11,0,0,0-.33.91l.29-.18,1.64.56a12.86,12.86,0,0,0,1.46,1.42,5.8,5.8,0,0,0,2.62,1c1.24.8,2,.78,2.79.15a5,5,0,0,0,.59.34,2.37,2.37,0,0,0,.26,1.13,1.68,1.68,0,0,0,0,.54c-.29.14-.24.26-.64.19a2.15,2.15,0,0,0-1.41.21c-.25.17-.23.29-.12.37a4.7,4.7,0,0,0,.2,1.7.79.79,0,0,0,.18.32l-1.77,4.18-.35.21.22.22.13.21a1,1,0,0,1,.28-.16,2.34,2.34,0,0,0,.27,0l-.15-.17-.11-.23,1.69-4.14c.15,0,.26-.25.17-.57s-.21-.66-.33-1a.56.56,0,0,1,0-.39h.1l.27.07c.11,0,.21.14.33.13.4,0,1.17-.34,1.32-.77a.83.83,0,0,0,0-.15,1.17,1.17,0,0,0,.21-.16,5.51,5.51,0,0,0,.65.47.92.92,0,0,0,.13.63,1.58,1.58,0,0,0-.13.34.39.39,0,0,0,0,.34,14.21,14.21,0,0,0-1.67,2.6c-.07.22,0,.47.08.52a14.26,14.26,0,0,0,.4,3.89l.72,8.38-.13.16-.14.07.18,0,.16.05.09.11.21-.15.16-.05.13,0-.21-.08-.12-.16-.8-8.55a13.61,13.61,0,0,0-.39-3.8s0,0,0,0a10.8,10.8,0,0,0,1.47-2.89l.14,0a1.27,1.27,0,0,0,.33-.24,1.88,1.88,0,0,0,.5,1.76A3,3,0,0,0,171,197.7a4.71,4.71,0,0,0,.82,3.74,4.56,4.56,0,0,0,1,2.12,3.79,3.79,0,0,0,1.66,1.16,2,2,0,0,0,2.09-.47,4.81,4.81,0,0,0,1.15-3,4.39,4.39,0,0,0-.38-1.3c-.12-1.58-.55-3.22-1.73-4a2.7,2.7,0,0,0-1.6-.48,2.16,2.16,0,0,0-.79-1.94s0-.08,0-.12a1.58,1.58,0,0,0,.53,0,.48.48,0,0,0,.16-.07,10.07,10.07,0,0,0,3.07.95h0A12.84,12.84,0,0,0,179,197.5l4.38,7.36v.2l-.12.2.12-.06.16,0h.26V205l.1-.14.11-.14-.15,0-.2-.06-4.34-7.18a14.44,14.44,0,0,0-1.95-3.35c.06-.12-.1-.32-.31-.43a13.22,13.22,0,0,0-3-.6.47.47,0,0,0-.17-.29,4,4,0,0,0-.77-.41l-.09-.09a2.88,2.88,0,0,0-.44-2.08l0,0h.15c.45-.05.91-.74,1-1.13,0-.12,0-.24-.05-.36a2.36,2.36,0,0,1,0-.27.34.34,0,0,1,0-.1.48.48,0,0,1,.37.1,10.13,10.13,0,0,0,.89.55c.29.16.53.11.59,0l4.36-.74.21.16.12.19s.09-.19.11-.26.21-.24.21-.24l-.17-.18-.16-.26-.29.3-4.43.79a.77.77,0,0,0-.26-.24,4.49,4.49,0,0,0-1.59-.58c-.06-.13-.17-.17-.38,0a2.17,2.17,0,0,0-.53,1.35c0,.41-.13.32-.32.58a1.2,1.2,0,0,0-.3-.07,2.61,2.61,0,0,0-.67-.41,1.87,1.87,0,0,0-.07-1.54c.62-.46.84-1.19.64-2.45a6.07,6.07,0,0,0,.1-2.84,13.36,13.36,0,0,0-.71-1.92l.13-1.75.28-.19c.07,0-.55-.25-1-.06l.3.1,0,1.89-.2,0a4.08,4.08,0,0,1,.6,2.54l-.24,0a3.72,3.72,0,0,1,.38,2,2.71,2.71,0,0,0-.28,1,2,2,0,0,1-.46,1.1,6.28,6.28,0,0,0-1.35-.88A6.47,6.47,0,0,1,169,186a2.25,2.25,0,0,0,.32-.46,2,2,0,0,0-.07-1.8,7.41,7.41,0,0,0-2.13-3.21,31.18,31.18,0,0,0,3.17-1.86,1.65,1.65,0,0,0,.46-1c.05-.39-.76-.62-1-.71a6,6,0,0,1-2.31-1.35c-.16-.17-.32-.36-.5-.54s-.18-.2-.38-.24a2.59,2.59,0,0,0-1.2-1.39c-.29-.19-.4,0-.41.29a1.63,1.63,0,0,0,1.24,1.48c0,.29,0,.36.28.53s.42.24.63.36a19.2,19.2,0,0,0,2.46,1.19l.91.32c-.91,1.42-2.46,1.78-3.65,2.71a1.84,1.84,0,0,0-1.6-.06c.24.21.71.18.78.28l.26.37a3,3,0,0,0-2.17,1.57A1.22,1.22,0,0,1,164,182c.08-.4.31-.62.31-1.08-.84.79-1,1.24-.81,2-1.11,1.05-1.7,2.56-3.25,3.25-.06-.32-.1-.64-.17-1a19.08,19.08,0,0,0-.77-2.65c-.08-.23-.16-.46-.25-.68s-.2-.29-.47-.36a1.63,1.63,0,0,0-1.26-1.47c-.28,0-.49,0-.34.36a2.54,2.54,0,0,0,1.17,1.42.55.55,0,0,0,.16.41l.46.59a6.08,6.08,0,0,1,.95,2.52c.05.23.16,1.07.54,1.09a1.65,1.65,0,0,0,1.07-.3,30.11,30.11,0,0,0,2.28-2.83,7.71,7.71,0,0,0,1.49,2.92,2.09,2.09,0,0,0,1.93.87Z" transform="translate(-26.8 -131.49)"/><path class="cls-1" d="M174.85,226.42a3.36,3.36,0,0,1,.14.48,4.43,4.43,0,0,0,.86-.46,5.59,5.59,0,0,1,1.62-.75,3,3,0,0,0-1.26-.93,3.71,3.71,0,0,1-1.19-.7,5.77,5.77,0,0,0-2.78-.37l.1-.26c-.19-.08-.36-.15-.52-.2-.4.43-.91.93-1.35,1.38,1.81-.12,3.76.25,4.38,1.81ZM160,241a13.87,13.87,0,0,1,2-2.58,23.39,23.39,0,0,1,2.25-2.09,8.53,8.53,0,0,0,1.84-1.76,10,10,0,0,0,1.17-2.68,1,1,0,0,1,.05-.48l0,.1c.1-.36.19-.73.27-1.1h0a2.48,2.48,0,0,1-1.28-1.84c.38.12.63.67.78.68l.56.07A3.94,3.94,0,0,1,168,226a1.56,1.56,0,0,0-.54.18c-.4.34-.49.73-1,1,.3-1.27.65-1.76,1.36-2a9.18,9.18,0,0,1,1.92-.46c.47-.55,1-1.05,1.48-1.6a11.4,11.4,0,0,0-2.4,0l0-.23-2.46-.77-.21.29c-.14-.53.31-1.14.35-1l.17.39,2.24.84a18.94,18.94,0,0,1,2.7,0h0a4.57,4.57,0,0,0,.71-1.47c-2.32-.09-3.54-1.25-5.51-2.36-.31-.18-.36-.19-.49-.49a1.83,1.83,0,0,1-1.85-1.21c-.09-.31,0-.56.35-.45a3,3,0,0,1,1.79,1.12.53.53,0,0,1,.48.12c1.74,1.16,2.68,2.54,4.85,2.86.32,0,.64.15.69.39a1.9,1.9,0,0,1-.17,1.28,2.35,2.35,0,0,1-.19.3,10.6,10.6,0,0,1,3,1.14c1.8.28,2.68.86,3.07,1.83a5.48,5.48,0,0,1,2.46.89c0-.22,0-.44.1-.65a1.17,1.17,0,0,1,.19-.42,2.93,2.93,0,0,0-.19-.4,3,3,0,0,0-1.1-.78c-.39-.23-.59-.29-.74-.52-.26-.39-.23-.55-.09-.61a14.69,14.69,0,0,1-.49-2.74,5.14,5.14,0,0,0-.07-.78c-.44-1.78-1-3.65-1.57-5.41l-.28-.19.42-.47.54.27-.22.31a55.43,55.43,0,0,0,1.49,5.66c.1.31.41.52.5.83a3.27,3.27,0,0,1,.09.94,8.09,8.09,0,0,0,0,1.56l.21,0a1.51,1.51,0,0,1,1.22.87c.21.43.42.75.63,1.13.12,0,.24,0,.35.26l.33.65a2.56,2.56,0,0,1,1.32.07,2.85,2.85,0,0,1,1.67-.11,3.47,3.47,0,0,0,.56-.59c.4-.59.58-1.46.95-2.11.19-.31.41-.8.83-.75.17,0,.34,0,.41.11,1-.1,2-.26,3.07-.31.24,0,.36.06.4.16a22.15,22.15,0,0,0,8.52-1.23l.33-.22.26.39-.24.52-.33-.17a27.2,27.2,0,0,1-8.6,1,.76.76,0,0,1-.52.32c-.23,0-.55,0-.88,0a16.86,16.86,0,0,1-2-.17,10.65,10.65,0,0,1-1.14,2.14,2.18,2.18,0,0,1-1,1l-.54.08a2.38,2.38,0,0,1-.33.64,2.57,2.57,0,0,1,2.26.6c1.65-1.94,4.48-1.25,6.14.68,2.61.71,2.62,5.44-.1,6.27a3.74,3.74,0,0,1-3.06-.23,3.93,3.93,0,0,1-3.94-4.79,3.62,3.62,0,0,1-1.33-.25,5.08,5.08,0,0,1,.14.61h0v.09a.64.64,0,0,1,0,.07l-.12.73c-.15.86-.59,1.11-1.29,1.45a2.62,2.62,0,0,0-.51.3l-.06.06c.35.3.52.24,1.12.24a2.76,2.76,0,0,1,1.3.23,5.07,5.07,0,0,1,.55.34c1.29.8,2.58,1.59,3.83,2.43,1,.69,2,1.49,3,2.26l.38.17-.05.5-.47.11-.25-.34a13.72,13.72,0,0,0-2.79-2.42c-1.21-.87-2.49-1.62-3.76-2.4l-.94,0a1.94,1.94,0,0,1-.79-.11,4.1,4.1,0,0,1-1.44-.78.31.31,0,0,1-.39-.36,1.75,1.75,0,0,1,1.13-1.51c.42-.2.56-.12.81-.58a1.54,1.54,0,0,0,.15-.35c-.11-.09-.21-.2-.29-.25l-.85-.53a2.21,2.21,0,0,1-.64.13c0,.08,0,.16-.07.23a.5.5,0,0,1,0,.13c.17.3.22.44.09.72-.48,1.07-1.12.88-2.08.88l.39.36a1.74,1.74,0,0,0,.49.27c.64.26.78.52,1.12,1.12a7.09,7.09,0,0,1,2.15,4.17l.21.2-.31.44-.42-.14.16-.49a6,6,0,0,0-2.29-4l-.42-.26a5.14,5.14,0,0,1-1.13-.95c-.39-.39-.71-.64-.28-1.15a2.25,2.25,0,0,1,1-.66c.57-.17.74-.05.94-.34a.35.35,0,0,1-.09-.11l-.31-.47c-.27-.08-.57-.18-.93-.32l-.71.24c-.4,1.44-1.3,2.18-3.6,2.23a9.52,9.52,0,0,1-3.79.74,17.87,17.87,0,0,1-2.68-.39l-2.31.54a8.28,8.28,0,0,1-1.49,3.11,13.14,13.14,0,0,1-1.92,1.67,10,10,0,0,0-1.89,2.54,8.68,8.68,0,0,1-.7,1.08,3.86,3.86,0,0,1-1.28.95c-.39.15-.69-.11-.47-.48Zm8-10.38c-.05.35-.1.7-.17,1l2.15-.38v0a8.18,8.18,0,0,1-2-.63Zm11-1.22A3.69,3.69,0,0,1,175,229a3.62,3.62,0,0,1-.43,1.06,2.69,2.69,0,0,1-1.07.93,5.86,5.86,0,0,0,2.76,0,3.62,3.62,0,0,1,1.27-.54,2.64,2.64,0,0,0,1.53-1Zm-5.6,1.54a4.68,4.68,0,0,1-1.73.42,4.19,4.19,0,0,0,1.79-.19l-.06-.23Z" transform="translate(-26.8 -131.49)"/><path class="cls-1" d="M117.79,191.34c.16.21.32.44.46.66.76-.16,1.41-.51,2.2-.65a1.94,1.94,0,0,1,.72,0c.16-.73-.11-1.2-.7-2.06a4.49,4.49,0,0,1-.79-1.3,8.93,8.93,0,0,0-2.56-2.13l.24-.12c-1-1.33-1.78-1.62-3.29-2.57l.16-.15-2-2.21-.37.07c.16-.47,1-.6,1-.51s0,.39,0,.39l1.76,2.1a32.07,32.07,0,0,1,2.72,1.79,13.32,13.32,0,0,1,3,3.34c1.88,1.61,2.32,2.69,1.92,3.77a4.38,4.38,0,0,1,.84.9l.26,0c.09-.25.21-.4.34-.44,0-.56.16-1.24.74-1.44.31-.11.48-.08.77-.2-.36-.7-.93-1.8-.57-2.56l.14-4.7-.22-.33.27-.1.2-.13s.12.22.19.25a2,2,0,0,1,.21.15l-.19.08-.19.17-.19,4.68a5.08,5.08,0,0,1,.58,2.44c.18.39.06.58-.31.9a1.5,1.5,0,0,1-.46.22,1.2,1.2,0,0,0-.75.61,2.33,2.33,0,0,1,.62,1c1-.42,1.23-.48,1.93.34.67-.28.9-.29,1.13-.16l.33-.41c.92-1.36,1.93-2.59,3-3.87a1.41,1.41,0,0,1,.71-.52,9.06,9.06,0,0,1,4.79-.12c3.07-.6,6.11-1.16,8.85-2.84l.05-.33.69-.11.16.51-.73.23c-2.57,1.83-5.8,2.33-8.82,2.82-1.49.83-3.22.38-4.84.25l-.56.84a13.18,13.18,0,0,1-3,3.4l-.16.45a3.06,3.06,0,0,0,.45.24c.65-1,1.55-.61,2.39-.13a4.58,4.58,0,0,1,.46-1.11c.79-1.26,2.92-1.44,4.16-1,.48.17.89.5,1.36.71.14.07.31.08.46.15a4.88,4.88,0,0,1,2.37,2.39,2.07,2.07,0,0,1-.24,2.14,4.79,4.79,0,0,1-3.6,1.89,4.6,4.6,0,0,1-3-.33,5.31,5.31,0,0,1-1.91-1.68,2.5,2.5,0,0,1-.3-1.42c-.83.33-1.59.48-2.2-.37-.67-.06-.81.25-1.53,0a4.75,4.75,0,0,1-.7.58l.35.74a2.21,2.21,0,0,1,1.16,1,.35.35,0,0,1,0,.14,9.31,9.31,0,0,1,2.36,2.84l6.11,6.23h.32l-.07.56-.55.07,0-.36c-1.93-2.15-4-4.15-6-6.23a7,7,0,0,1-2.52-2.91,2.07,2.07,0,0,1-1.19-.63.93.93,0,0,1-.57-.19,4.92,4.92,0,0,1-1-1.17l-.22-.13-.16.05a2.65,2.65,0,0,1-.23.48,1.27,1.27,0,0,1-.67.45,5.4,5.4,0,0,0-.24.78,2.6,2.6,0,0,0,0,.88c.1.57.34.82.22,1.47a2.46,2.46,0,0,1-.68,1.21c-.22,1-.34,2.47-1,3.26-.34.41-.68.82-1,1.24a27.62,27.62,0,0,0-3,4.58v.61l-.57-.11-.17-.57.41-.12a36.56,36.56,0,0,1,3.21-4.87c.07-.34.11-.68.21-1a5.7,5.7,0,0,1,.37-.92c.15-.29.38-.54.55-.83a3.55,3.55,0,0,0,.6-1.63c0-.54.16-1.06.23-1.59a22.47,22.47,0,0,1,.4-2.39c-.15-.07-.23-.24-.17-.55l.12-.62-.33-.28a3.62,3.62,0,0,1-.65.29c0,1.33-.84,2.17-3.46,2.76a13.06,13.06,0,0,1-4.16,1.55,28.42,28.42,0,0,1-3.23.3l-2.53,1-.13.37c0,.09-.68-.41-.61-.9l.3.24,2.81-1-.07-.21c1.77-.12,2.6,0,4.09-.72l-.15-.22a8.59,8.59,0,0,0,3.24-.68,4.77,4.77,0,0,1,1.31-.77c1-.51,1.42-.81,1.59-1.61l0,0a3,3,0,0,1-1.7-1,3,3,0,0,1-.55.92,5.24,5.24,0,0,1-1,1,13.49,13.49,0,0,1-2.53,1.5,13.69,13.69,0,0,1-2.74.32,2.33,2.33,0,0,1-1.91-.76c.24-.51,1.8-.05,2.24,0a2.7,2.7,0,0,1-1.51-3.19,9.12,9.12,0,0,0-.75,2.34c-.9-.94,0-2.55.62-3.39a6.19,6.19,0,0,1,3.46-2.3,7.65,7.65,0,0,1,1.47-.41,1.51,1.51,0,0,1,1.86.68Z" transform="translate(-26.8 -131.49)"/><path class="cls-1" d="M74.9,142.31a2.52,2.52,0,0,0,.33-.39,5.85,5.85,0,0,1,.61.61c.43.48.66.81,1,1a4.89,4.89,0,0,0,1.24.34,1.84,1.84,0,0,1-.81.89c-.33.24-.56.31-.78.65a3.63,3.63,0,0,1-2,.45l.12.21a4,4,0,0,1-2.55.45l.06.19-1.72.77-.2-.23c0,.45.41.94.43.86s.06-.33.06-.33l1.54-.82a11.83,11.83,0,0,0,2-.1,5.85,5.85,0,0,0,2.55-1.21c1.34-.33,1.89-.89,2-1.78a2.67,2.67,0,0,0,.48-.08,2,2,0,0,0,1.18.76.64.64,0,0,0,.11.16c-.19.27-.08.34-.46.49a2.14,2.14,0,0,0-1.1.91c-.13.28-.06.37.08.38a4.66,4.66,0,0,0,1,1.36.81.81,0,0,0,.32.18l.59,4.51-.19.36.3.07.21.12a1.15,1.15,0,0,1,.17-.28c.06,0,.21-.18.21-.18l-.21-.07-.21-.14L80.68,148c.12-.1.1-.35-.14-.58a10.13,10.13,0,0,0-.79-.68.53.53,0,0,1-.21-.33l.09,0a1.73,1.73,0,0,1,.26-.08c.11,0,.25,0,.35-.06.33-.25.83-.9.74-1.35a.33.33,0,0,0,0-.14l.06-.13a5.36,5.36,0,0,0,.75-.06.82.82,0,0,0,.69.42.59.59,0,0,0,.06.14.37.37,0,0,0,.25.24,14.41,14.41,0,0,0,.38,3.07c.09.22.27.39.39.35a14.46,14.46,0,0,0,2.8,2.71l5.91,5.92v.21l-.06.14.16-.07.16-.07.14,0,.06-.25.09-.14.08-.11-.22.07-.19,0-6.07-6a13.25,13.25,0,0,0-2.73-2.65s0,0,0-.06a10.61,10.61,0,0,0-.72-3.16.23.23,0,0,0,.08-.12.61.61,0,0,0,0-.12,1.78,1.78,0,0,0,1.66.77,3.15,3.15,0,0,0,.54,2.38,4.6,4.6,0,0,0,3.43,1.63,4.42,4.42,0,0,0,2.26.51,3.67,3.67,0,0,0,1.92-.62,2,2,0,0,0,.92-1.95,4.84,4.84,0,0,0-1.67-2.78,4.13,4.13,0,0,0-1.25-.49c-1.31-.88-2.86-1.53-4.19-1.08a2.77,2.77,0,0,0-1.3.91,2.32,2.32,0,0,0-1.82-.7c0-.08-.06-.15-.08-.22a2.12,2.12,0,0,0,.53-.6.62.62,0,0,0,0-.16,10.42,10.42,0,0,0,2.62-1.88l0-.07a12.15,12.15,0,0,0,3.55.08l8.5.15.16.11.1.21v-.14l0-.16.13-.22-.11-.09-.06-.16-.06-.17-.06.14-.15.15-8.32-.09a13,13,0,0,0-3.73-.11.46.46,0,0,0-.29,0v0l0,0-.16.06a13.5,13.5,0,0,0-2.31,2,.43.43,0,0,0-.32,0,4.4,4.4,0,0,0-1,.47,2.88,2.88,0,0,0-1.56-1.28,1,1,0,0,0,0-.22l.11-.1a1.82,1.82,0,0,0,.08-1.55c0-.11-.18-.16-.27-.24l-.18-.2-.06-.08a.57.57,0,0,1,.36-.17c.35,0,.67-.08,1-.15s.47-.27.42-.42L85.49,135h.26l.21.06a1.64,1.64,0,0,0-.09-.27,1.06,1.06,0,0,1,0-.32l-.24,0-.29-.1,0,.41-2.87,3.51a.81.81,0,0,0-.36,0,4.44,4.44,0,0,0-1.59.6c-.12-.07-.23,0-.26.27a2.11,2.11,0,0,0,.45,1.37c.25.33.11.34.13.66a2,2,0,0,0-.52.31,3.12,3.12,0,0,0-.65.13,2.31,2.31,0,0,0-.66-1c.43-.64.41-1.4-.19-2.52a5.9,5.9,0,0,0-.81-2.72,13.58,13.58,0,0,0-1.29-1.58l-.43-1.7.2-.27c0-.07-.61-.06-.93.25h.31l.59,1.8-.18.09c.73.85,1.19,1.14,1.38,2.21l-.23.05a3.67,3.67,0,0,1,1,1.81,2.7,2.7,0,0,0,0,1,1.93,1.93,0,0,1-.11,1.24,3.78,3.78,0,0,0-1.91.07,4.67,4.67,0,0,1-.65.13,2.56,2.56,0,0,0,0-.78c-.1-.72-.57-1-1.12-1.41a8.61,8.61,0,0,0-1.46-.79,15.84,15.84,0,0,0,2.45-.83,1.07,1.07,0,0,0,.54-.79c0-.31-1-.56-1.24-.64A9.71,9.71,0,0,1,72.08,134l-.65-.47a.82.82,0,0,0-.47-.21,3.07,3.07,0,0,0-1.54-1.21c-.36-.18-.5,0-.5.2.11.64.67,1,1.59,1.29,0,.23,0,.29.37.44s.52.23.78.34c1,.4,2,.81,3.1,1.13l1.15.32a8,8,0,0,1-3.24,1.48A7,7,0,0,0,71,137a1.75,1.75,0,0,0-1.52.91c.31,0,.67-.28.79-.24l.43.14a3.06,3.06,0,0,0-.83,2.56c-.11-.1-.27-.17-.34-.3-.17-.38-.11-.69-.38-1.07-.24,1.26,0,1.67.68,2.21a12.59,12.59,0,0,0,1.1.75A7.9,7.9,0,0,1,72,145.1l-.91-.58a29.2,29.2,0,0,0-2.62-1.44c-.23-.12-.46-.24-.69-.34s-.33-.09-.5,0c-.73-.47-1.32-.62-1.78-.33-.15.13-.15.31.18.45a2.79,2.79,0,0,0,1.7.35.83.83,0,0,0,.43.19l.69.16a9.42,9.42,0,0,1,2.58,1.25c.22.13,1,.67,1.16.46a.89.89,0,0,0,.16-.82,16.67,16.67,0,0,0-1-2.22,5.5,5.5,0,0,0,1.47.53,2.05,2.05,0,0,0,2.06-.46Z" transform="translate(-26.8 -131.49)"/><path class="cls-1" d="M32.62,143a3,3,0,0,0,.34-.45,1.07,1.07,0,0,1,.18.19,3.28,3.28,0,0,0,1.5,1.37,5.22,5.22,0,0,0,1.19.32l.18,0a1.61,1.61,0,0,1-1.36.4,2.31,2.31,0,0,0-1,0,3.48,3.48,0,0,1-1.82-.81l0,.23a3.37,3.37,0,0,1-2-1,4.25,4.25,0,0,0,.87.21,2,2,0,0,0,2-.54Zm7.57-3.24,2.38-3.61.24,0,.21,0a1.45,1.45,0,0,0-.11-.24.93.93,0,0,1,0-.31h-.23l-.29-.06,0,.4L40,139.6a.92.92,0,0,0-.35,0,4.28,4.28,0,0,0-1.45.76c-.13,0-.23,0-.23.29a2.09,2.09,0,0,0,.59,1.27c.27.29.14.3.2.61a1.73,1.73,0,0,0-.48.38h-.06a1.79,1.79,0,0,1-.61-.12l0,0c.33-1.34,0-2.18-1.58-2.82a5.51,5.51,0,0,0-2.28-1.5,13,13,0,0,0-1.93-.37l-.61-.44a5.93,5.93,0,0,0,.69-.52,1.6,1.6,0,0,0,.55-.93c.08-.37-.67-.68-.87-.79a5.69,5.69,0,0,1-2.09-1.54l-.43-.57c-.13-.16-.15-.21-.34-.26a2.49,2.49,0,0,0-1-1.46c-.26-.22-.39-.05-.42.23a1.59,1.59,0,0,0,1,1.56c0,.27,0,.35.22.53s.37.28.56.41a17.66,17.66,0,0,0,2.26,1.4l.85.4a8.17,8.17,0,0,1-.61.71,9.14,9.14,0,0,1-.72.6l-.43-.31s0-.25,0-.33-.48.34-.52.77l.22-.19.45.28c-.24.18-.48.35-.69.52a6.17,6.17,0,0,0-1.3-.12,1.7,1.7,0,0,0-1.43.95c.31,0,.64-.3.76-.27l.42.11a3,3,0,0,0-.67,2.53c-.12-.1-.27-.16-.34-.28-.19-.36-.15-.66-.43-1-.16,1.22,0,1.62.77,2.1a12.09,12.09,0,0,0,1.13.68l.12.34L27.74,143l0-.3c-.27.34-.22,1-.16.92l.24-.22,1.18.19c.25.77.51,1.54.76,2.31a13.15,13.15,0,0,0-1,1.94c-.21.53-.43,1.1-.61,1.64a.57.57,0,0,0,0,.59,2.45,2.45,0,0,0-.11,2.11c.2.38.31.3.47,0a4,4,0,0,0,.13-2.07.8.8,0,0,0,.14-.66,2.94,2.94,0,0,1,.3-1.54c.29-.63.58-1.27.86-1.91a3,3,0,0,0-.21-1.49c-.13-.28-.26-.55-.4-.83l.13,0a12.3,12.3,0,0,0,1.63,1.1,5.75,5.75,0,0,0,2.68.53c1.5.64,2.29.32,2.95-.7a1.48,1.48,0,0,1,.36.16,2.2,2.2,0,0,0,.31,1,1.19,1.19,0,0,1-.88.37,1.64,1.64,0,0,0-.5.09c-.45.2-.61.36-.55.78a5.22,5.22,0,0,0-.1,2.51l-1.43,4.46-.23.1-.21,0s.12.16.17.21a1,1,0,0,1,.11.29l.23-.07.29,0-.12-.37,1.39-4.49c.55-.63.3-1.85.14-2.63.31,0,.47.05.79,0,.62,0,.94-.65,1.1-1.19.18,0,.39-.18.58-.56l.26.05a4.62,4.62,0,0,0,.42,1.13.45.45,0,0,0,.28.22,21.56,21.56,0,0,0-.18,4.09,1,1,0,0,0,.12.34h0a.36.36,0,0,0,.07.1,12.48,12.48,0,0,0,1,3.47l2.18,7.78-.11.21-.14.11.2,0,.2,0,.12.1.21-.22.16-.09.15-.05-.26-.06-.17-.14-2.18-7.57a9.41,9.41,0,0,0-1.08-3.6.68.68,0,0,0,.07-.25c0-1.34.25-3-.19-4.31a.29.29,0,0,0,.11-.18,2.74,2.74,0,0,0,0-1.11l.54,0a2.82,2.82,0,0,0,1,1.14c-1.35,1.52-.8,3.37.4,4.74a3.94,3.94,0,0,0,1.1,1.68,3.2,3.2,0,0,0,1.55.74,1.67,1.67,0,0,0,1.7-.7,4.24,4.24,0,0,0,.58-2.76,3.61,3.61,0,0,0-.48-1.06c-.43-1.91-1.41-3.81-3.64-3.33a1.82,1.82,0,0,0-1.58-1.46c-.1-.13-.2-.24-.3-.35a1.75,1.75,0,0,0,.43-.43.31.31,0,0,0,.07-.23c1.19-.66,2.08-2.08,3-3.05A1.18,1.18,0,0,0,44,140a9.4,9.4,0,0,0,3.45-1.32L55,136l.22.06.19.18,0-.15,0-.19.05-.29-.15-.05-.13-.14-.13-.16v.17l-.1.22-7.59,2.76a11.94,11.94,0,0,0-3.42,1.31.25.25,0,0,0-.12,0v0a1,1,0,0,0-.39.19,21.58,21.58,0,0,0-2.58,3.13.48.48,0,0,0-.32-.06,3.7,3.7,0,0,0-.87.25,4.53,4.53,0,0,0-.49-.2,2.88,2.88,0,0,0,0-.35l.09-.11a1.74,1.74,0,0,0-.1-1.49c-.06-.1-.19-.14-.28-.2l-.2-.18-.06-.07a.56.56,0,0,1,.32-.21,8.16,8.16,0,0,0,1-.26c.31-.1.43-.31.37-.44Zm-11,3.53L29,143a4.77,4.77,0,0,0,.52.22l0,.12-.34-.08ZM37,142.22a3.31,3.31,0,0,0-.86-.73l-1-.48c-.55,0-1,.17-1.5.11l-.29-.13a2.09,2.09,0,0,0,0-.56,2,2,0,0,0-1.15-1.3,7.59,7.59,0,0,0-2-.86l.62-.41.76.47-.08.18c1.07.17,1.59.09,2.39.76l-.14.19a3.47,3.47,0,0,1,1.87.7c.17.35.39.45.67.72a1.58,1.58,0,0,1,.7,1.34Z" transform="translate(-26.8 -131.49)"/><path class="cls-1" d="M114.74,159.3a2.6,2.6,0,0,1,.06.56,1.29,1.29,0,0,0,.26-.08,3.25,3.25,0,0,1,2-.4,4.94,4.94,0,0,1,1.18.33l.17.08c-.15-.54-.43-.74-1-1a2.18,2.18,0,0,1-.81-.54,3.44,3.44,0,0,0-2-.24l.09-.21a3.27,3.27,0,0,0-2.24-.2,5.2,5.2,0,0,1,.85.26,2.06,2.06,0,0,1,1.42,1.49Zm4.88,6.68.23,4.33.19.16.19.08a1.8,1.8,0,0,1-.21.16c-.07,0-.19.25-.19.25l-.2-.13-.27-.1.21-.33-.18-4.4a.89.89,0,0,1-.29-.21,4.4,4.4,0,0,1-.87-1.39c-.13,0-.19-.12,0-.38a2.09,2.09,0,0,1,1.15-.78c.38-.11.28-.19.48-.43a1.92,1.92,0,0,1-.23-.57l0,0A1.78,1.78,0,0,0,119,162h0c-.39,1.32-1.07,1.9-2.79,1.62a5.57,5.57,0,0,1-2.72.11,12.27,12.27,0,0,1-1.84-.68l-.75.06c.13.27.24.54.34.81a1.63,1.63,0,0,1,0,1.09c-.11.36-.91.24-1.14.22a5.73,5.73,0,0,0-2.57.25l-.66.27a.58.58,0,0,1-.42.06,2.53,2.53,0,0,1-1.62.73c-.33.05-.35-.17-.24-.42a1.54,1.54,0,0,1,1.68-.8c.14-.24.16-.31.46-.35s.46-.05.69-.06a16.64,16.64,0,0,1,2.64,0c.31,0,.62.06.93.09a7.08,7.08,0,0,0-.16-.92,6.83,6.83,0,0,0-.32-.89l-.52,0s-.14.21-.19.27-.24-.54-.06-.93l.1.29h.53c-.12-.28-.24-.56-.34-.81a7.44,7.44,0,0,1-1.18-.56,1.73,1.73,0,0,1-.74-1.56c.27.14.4.59.51.62l.42.12a3,3,0,0,1,.69-2.52c-.14,0-.31,0-.43.07-.35.21-.46.49-.88.65.48-1.14.86-1.37,1.72-1.41.45,0,.89,0,1.32,0l.27-.23-1.1-.36-.17.24c-.06-.43.31-1,.33-.87l.1.31,1.1.45,1.83-1.6a13.22,13.22,0,0,1,.11-2.18c.09-.57.19-1.17.31-1.73.06-.32.07-.32.31-.49a2.44,2.44,0,0,1,1-1.88c.36-.22.42-.09.38.28a4,4,0,0,1-.93,1.85.83.83,0,0,1-.21.64,2.84,2.84,0,0,0-.52,1.47c-.07.7-.14,1.4-.22,2.09a2.91,2.91,0,0,1-.94,1.17c-.24.18-.5.35-.75.51l.12.05a13.34,13.34,0,0,1,2-.1,5.54,5.54,0,0,1,2.57.92c1.62.23,2.14.9,2.19,2.12a1.86,1.86,0,0,0,.39.05,2.13,2.13,0,0,1,.79-.73,1.18,1.18,0,0,0-.58-.77,2.05,2.05,0,0,1-.38-.34c-.28-.4-.35-.62-.08-1a5.06,5.06,0,0,1,1.19-2.21l1-4.57-.14-.21-.17-.13a2.1,2.1,0,0,1,.25-.09c.07,0,.25-.2.25-.2l.16.18.23.17-.29.26-1.07,4.58c.17.83-.67,1.74-1.2,2.33.26.19.43.2.7.39a1.45,1.45,0,0,1,.35,1.59c.15.09.24.35.22.78l.24.08a5.46,5.46,0,0,1,.93-.75.52.52,0,0,1,.36-.05,21.43,21.43,0,0,1,1.9-3.61,1.43,1.43,0,0,1,.27-.23h0l.11,0a12.57,12.57,0,0,1,2.65-2.44l5.8-5.58v-.24l-.06-.17.18.1.18.08.16,0,.07.29.09.16.1.12-.25-.08-.22,0-5.69,5.39a9.11,9.11,0,0,1-2.74,2.55.69.69,0,0,1-.06.25c-.71,1.14-1.31,2.71-2.34,3.61a.35.35,0,0,1,0,.21,2.94,2.94,0,0,1-.54,1c.15.1.29.21.44.33a2.71,2.71,0,0,1,1.43-.47c-.39-2,1-3.32,2.74-3.87a3.68,3.68,0,0,1,1.79-.88,3,3,0,0,1,1.71.15,1.72,1.72,0,0,1,1.11,1.48,4.3,4.3,0,0,1-.89,2.68,3.51,3.51,0,0,1-1,.66c-1.33,1.42-3.13,2.55-4.81,1a1.81,1.81,0,0,1-2.09.45l-.44.14a1.93,1.93,0,0,1,.16.59.43.43,0,0,1-.06.24c.68,1.18.74,2.86,1.05,4.17a1.22,1.22,0,0,1,0,.21,10,10,0,0,1,2.31,2.92l5.14,6.19.21.06.26-.06-.11.11-.11.15-.11.28-.15,0-.19.06-.19.07.08-.15,0-.25L125,170.75a12.16,12.16,0,0,1-2.28-2.89l-.1-.07h0v0a1,1,0,0,1-.24-.36,21.73,21.73,0,0,1-.64-4,.56.56,0,0,1-.31-.11,3.65,3.65,0,0,1-.62-.67,3.47,3.47,0,0,1-.52-.08,1.87,1.87,0,0,1-.16.32.7.7,0,0,1,0,.14c0,.44-.5,1-.84,1.23-.1.06-.23,0-.34,0l-.26.05-.09,0a.53.53,0,0,0,.17.34,9.81,9.81,0,0,1,.71.73c.21.24.21.48.09.57Zm-7.7-8.71-.24.15.55.08,0-.12-.33-.11Zm6.24,4.95a3.32,3.32,0,0,1-1.11.19l-1.06-.08c-.5-.25-.76-.65-1.25-.87l-.31,0a2.59,2.59,0,0,1-.32.47,1.94,1.94,0,0,1-1.64.52,8,8,0,0,1-2.14-.28c.1.22.21.44.32.67l.89,0,0-.19c1,.4,1.41.74,2.43.57l0-.23a3.45,3.45,0,0,0,2,.36,2.5,2.5,0,0,1,.94-.28,1.54,1.54,0,0,0,1.28-.79Z" transform="translate(-26.8 -131.49)"/><path class="cls-1" d="M185.87,276a3.23,3.23,0,0,1-.61.48c.2.19.38.36.58.53.51.4.85.61,1,1a3.62,3.62,0,0,1,.31,1.17,1.92,1.92,0,0,0,.78-1,2.24,2.24,0,0,1,.5-.89,3.8,3.8,0,0,0,.1-2.08l.22.08c.41-1,.17-1.5,0-2.61l.2,0,.46-1.84-.27-.17c.44-.09,1,.26.92.29s-.31.12-.31.12l-.54,1.67a12.69,12.69,0,0,1,.24,2,6,6,0,0,1-.75,2.74c-.11,1.48-.61,2.12-1.55,2.35,0,.23-.05.46-.09.68a2.17,2.17,0,0,1,.73.88,1.85,1.85,0,0,1,.45.31c.28-.16.34,0,.53-.4a2.15,2.15,0,0,1,1-1c.28-.1.36,0,.36.12a4.71,4.71,0,0,1,1.22,1.18.8.8,0,0,1,.15.34l4.37,1.08.37-.15.05.3.08.23a1.1,1.1,0,0,0-.28.13,2.68,2.68,0,0,1-.2.19l0-.21-.13-.23-4.29-1.11c-.11.1-.35.05-.55-.21s-.39-.56-.59-.87a.55.55,0,0,0-.3-.25.36.36,0,0,1,0,.09c0,.06-.1.26-.1.26s0,.25-.1.34c-.27.31-1,.75-1.41.61a.75.75,0,0,1-.13-.06,1.65,1.65,0,0,1-.26.08,5.44,5.44,0,0,1,0,.8,1,1,0,0,1,.42.48,2.75,2.75,0,0,1,.34.1.4.4,0,0,1,.25.24,13.63,13.63,0,0,1,3.06.21c.21.07.39.25.36.37a14.16,14.16,0,0,1,2.84,2.66l6.2,5.62h.21l.14-.07-.07.17-.06.16,0,.13-.25.09-.13.09-.1.1.06-.23-.05-.19-6.29-5.77a13.5,13.5,0,0,1-2.77-2.6h-.06A10.48,10.48,0,0,1,189,284l-.12.09a1.42,1.42,0,0,1-.38.13,1.85,1.85,0,0,1,1.09,1.45,3.05,3.05,0,0,1,2.3-.07,4.73,4.73,0,0,1,2.47,2.92,4.55,4.55,0,0,1,1.09,2.07,3.94,3.94,0,0,1-.09,2,2,2,0,0,1-1.62,1.41,4.79,4.79,0,0,1-3.09-.89,4.38,4.38,0,0,1-.8-1.09c-1.18-1.05-2.22-2.38-2.14-3.8a2.87,2.87,0,0,1,.58-1.59,2.13,2.13,0,0,1-1.06-1.8l-.12,0a1.64,1.64,0,0,1-.31.44.37.37,0,0,1-.15.08,10.48,10.48,0,0,1-1.08,3.05l0,.05a13.2,13.2,0,0,1,1.43,3.47l3.19,8,.16.11.23,0-.12.06-.13.1-.16.2-.12-.07h-.35l.11-.1.08-.2-3.08-7.81a14.06,14.06,0,0,1-1.48-3.59c-.13,0-.2-.28-.16-.51a13.62,13.62,0,0,1,1.32-2.78.44.44,0,0,1-.12-.31,3.4,3.4,0,0,1,.13-.87.53.53,0,0,1,0-.13,2.88,2.88,0,0,1-1.39-1.6h0a.48.48,0,0,1-.09.11,1.73,1.73,0,0,1-1.52.17c-.11,0-.17-.17-.25-.25s-.16-.14-.21-.17l-.09-.06a.63.63,0,0,0-.15.37,9.28,9.28,0,0,1-.08,1c0,.33-.24.49-.39.45l-3.2,3.1v.26l.07.2a1.52,1.52,0,0,1-.27-.06,1,1,0,0,0-.32,0l0-.24-.11-.28.4-.06,3.29-3.1a.8.8,0,0,1,0-.37,4.55,4.55,0,0,1,.5-1.63c-.07-.12,0-.23.25-.29a2.12,2.12,0,0,1,1.38.38c.34.23.34.1.66.09a1.07,1.07,0,0,1,.12-.28,2.44,2.44,0,0,1,.08-.79,1.78,1.78,0,0,1-1.18-1c-.74.22-1.45,0-2.32-1a5.78,5.78,0,0,1-2.31-1.62,12.72,12.72,0,0,1-1.09-1.72l-1.47-.94-.32.11c-.07,0,.14-.6.53-.81l-.1.29,1.51,1.12.15-.14c.57,1,.7,1.5,1.65,2l.12-.21a3.68,3.68,0,0,0,1.39,1.54,2.36,2.36,0,0,1,.94.36,1.88,1.88,0,0,0,1.15.28,5.89,5.89,0,0,1,.12-1.61c0-.27.07-.53.09-.83a2.51,2.51,0,0,1-.55,0,2,2,0,0,1-1.39-1.14,7.61,7.61,0,0,1-1.26-3.65,31,31,0,0,1-3.37,1.45,1.61,1.61,0,0,1-1.09-.24c-.33-.19,0-1,0-1.22a6.1,6.1,0,0,0,.32-2.68c0-.23-.09-.47-.13-.73a.56.56,0,0,1,0-.44,2.6,2.6,0,0,1-.38-1.81c0-.35.24-.32.47-.16a1.65,1.65,0,0,1,.43,1.9c.21.19.28.23.25.54a5.9,5.9,0,0,1-.09.72,17.81,17.81,0,0,1-.54,2.71c-.09.31-.2.62-.29.93,1.67.11,2.89-.93,4.34-1.33a1.83,1.83,0,0,1,.9-1.33c0,.32-.27.68-.24.8l.14.43a3,3,0,0,1,2.54-.82c-.1-.11-.17-.27-.3-.34-.37-.18-.68-.12-1.05-.4,1.13-.21,1.57-.06,2,.53,1.5-.28,3,.14,4.52-.69l-.66-.71a19.67,19.67,0,0,1-1.63-2.21c-.13-.2-.27-.41-.39-.62s-.11-.33,0-.59a1.65,1.65,0,0,1-.41-1.9c.13-.25.33-.37.49-.06a2.59,2.59,0,0,1,.42,1.79.58.58,0,0,1,.23.39c.07.25.13.49.19.71a6.05,6.05,0,0,0,1.42,2.29c.16.18.76.77.54,1.09a1.58,1.58,0,0,1-.88.68,29.08,29.08,0,0,1-3.6.15,7.65,7.65,0,0,1,1.42,3,2.14,2.14,0,0,1-.47,2.08Z" transform="translate(-26.8 -131.49)"/><path class="cls-1" d="M287.43,208.87a7,7,0,0,1-.14.8c.66.43,1.36.64,2,1.1a2.51,2.51,0,0,1,.52.51c.61-.4.75-.93.93-1.95a4.47,4.47,0,0,1,.34-1.49,9.06,9.06,0,0,0-.33-3.34l.25.09c.22-1.66-.13-2.42-.54-4.17h.21l.1-3-.31-.22a1,1,0,0,1,1,.31l-.31.25L291,200.5a29.08,29.08,0,0,1,.69,3.21,13.35,13.35,0,0,1-.22,4.48c.21,2.47-.23,3.56-1.26,4a4.8,4.8,0,0,1,0,1.24l.2.17a.6.6,0,0,1,.55-.07,1.4,1.4,0,0,1,1.53-.5c.29.14.39.29.68.41.23-.76.59-1.95,1.38-2.22l3.37-3.25.07-.39.27.13.23,0a.86.86,0,0,0,0,.31c0,.07.05.27.05.27l-.2-.08-.25,0-3.39,3.19a5.07,5.07,0,0,1-1.29,2.15c-.14.4-.36.45-.85.42a1.72,1.72,0,0,1-.48-.17,1.21,1.21,0,0,0-.95-.11,2.47,2.47,0,0,1-.26,1.16c1,.39,1.2.54,1.13,1.62.66.27.84.44.91.69l.52-.06c1.6-.31,3.18-.46,4.8-.64a1.48,1.48,0,0,1,.86.13,9.3,9.3,0,0,1,3.49,3.33c2.6,1.75,5.15,3.52,8.26,4.28l.27-.2.56.42-.24.48-.68-.37c-3.09-.52-5.74-2.46-8.22-4.28-1.64-.46-2.55-2-3.62-3.26l-1,.2a12.86,12.86,0,0,1-4.49.29l-.43.21c0,.13.08.3.15.49,1.13-.22,1.53.66,1.8,1.6a4.59,4.59,0,0,1,1.09-.46c1.44-.34,3.08,1.06,3.66,2.24a12.57,12.57,0,0,1,.47,1.47c.06.15.17.28.24.43a5,5,0,0,1,0,3.39,2,2,0,0,1-1.66,1.35,4.77,4.77,0,0,1-3.87-1.22,4.71,4.71,0,0,1-1.93-2.4,5.26,5.26,0,0,1-.19-2.55,2.43,2.43,0,0,1,.78-1.22c-.82-.37-1.47-.8-1.31-1.83-.44-.52-.75-.4-1.06-1.12a4.72,4.72,0,0,1-.9-.09l-.26.78a2.31,2.31,0,0,1,.16,1.5.23.23,0,0,1-.08.12,9.68,9.68,0,0,1-.31,3.7v8.78l.23.22-.44.34-.44-.34.28-.22c.13-2.9.06-5.79.09-8.69a7.17,7.17,0,0,1,.24-3.86,2.09,2.09,0,0,1-.41-1.29.9.9,0,0,1-.27-.54,5.22,5.22,0,0,1,.12-1.53c0-.07,0-.16-.06-.25a.52.52,0,0,1-.15-.07,2.22,2.22,0,0,1-.49.18,1.24,1.24,0,0,1-.8-.16,4.9,4.9,0,0,0-.71.39,2.4,2.4,0,0,0-.59.64c-.33.48-.33.83-.87,1.2a2.49,2.49,0,0,1-1.32.38c-.84.54-2,1.5-3,1.6l-1.58.16a27.42,27.42,0,0,0-5.29,1.14l-.43.43-.34-.49.28-.52.38.21a35.47,35.47,0,0,1,5.67-1.18c.28-.19.55-.4.84-.56a5.1,5.1,0,0,1,.9-.39c.32-.1.65-.12,1-.19a3.47,3.47,0,0,0,1.57-.75c.4-.35.84-.63,1.26-1,.67-.53,1.27-1,1.95-1.41-.05-.15,0-.33.27-.51l.51-.35c0-.13,0-.28,0-.43a4.11,4.11,0,0,1-.66-.27c-.94.94-2.11,1-4.37-.5a13,13,0,0,1-4-1.86,31.24,31.24,0,0,1-2.5-2.08L274,209.13s-.27.12-.35.17-.2-.77.19-1.07l.05.38,2.69,1.29.1-.19c1.34,1.17,1.85,1.83,3.41,2.39l0-.26a8.49,8.49,0,0,0,2.78,1.82,4.65,4.65,0,0,1,1.46.38c1,.33,1.57.44,2.26,0h0a3.14,3.14,0,0,1-.5-1.93,2.84,2.84,0,0,1-1,.26,5,5,0,0,1-1.45,0,13,13,0,0,1-2.84-.74,12.9,12.9,0,0,1-2.17-1.72,2.35,2.35,0,0,1-.82-1.9c.52-.19,1.31,1.25,1.56,1.62a2.72,2.72,0,0,1,1.15-3.34c-1,.24-1.27.69-2.16,1.13,0-1.31,1.79-1.8,2.8-2a6.11,6.11,0,0,1,4.06.83,9.21,9.21,0,0,1,1.34.75,1.56,1.56,0,0,1,.84,1.81Z" transform="translate(-26.8 -131.49)"/><path class="cls-1" d="M201.56,151.07a3,3,0,0,0,.63-.45,6.74,6.74,0,0,1,.34.72,3.13,3.13,0,0,0,.63,1.26,3.4,3.4,0,0,0,1,.63,1.85,1.85,0,0,1-1.17.48,2.21,2.21,0,0,0-1,.23,3.7,3.7,0,0,1-2-.5v.24a4,4,0,0,1-2.48-.74l0,.2-1.87-.08-.08-.3a1.11,1.11,0,0,0,0,1l.2-.27,1.74-.05a12.22,12.22,0,0,0,1.85.82,5.73,5.73,0,0,0,2.82.05c1.43.32,2.18,0,2.67-.83.22.05.44.08.66.11a2.27,2.27,0,0,0,.63,1,2,2,0,0,0,.17.52c-.23.23-.13.32-.54.4a2.14,2.14,0,0,0-1.25.69c-.17.25-.12.35,0,.39a4.37,4.37,0,0,0,.77,1.52.82.82,0,0,0,.27.24l-.22,4.54-.25.32.27.13.19.15s.15-.22.21-.24A2.64,2.64,0,0,0,206,163l-.19-.1-.18-.18.16-4.48c.13-.08.16-.32,0-.59s-.43-.55-.66-.82a.55.55,0,0,1-.15-.37l.1,0,.27,0c.12,0,.25,0,.35,0,.37-.18,1-.73,1-1.19a.76.76,0,0,0,0-.15,1,1,0,0,0,.14-.23,4.2,4.2,0,0,0,.77.22,1,1,0,0,0,.34.55,1.45,1.45,0,0,0,0,.36.39.39,0,0,0,.16.31,13.62,13.62,0,0,0-.68,3c0,.23.12.45.25.46a14.38,14.38,0,0,0,1.71,3.51l3.55,7.6-.06.21-.11.11.18,0h.17l.12.07.15-.21.13-.11.12-.06h-.24l-.16-.1L209.53,163a13.41,13.41,0,0,0-1.67-3.43s0,0,0-.05a10.42,10.42,0,0,0,.39-3.22l.13-.08a1.69,1.69,0,0,0,.23-.34,1.83,1.83,0,0,0,1.06,1.47,3.1,3.1,0,0,0-.72,2.21,4.75,4.75,0,0,0,2.06,3.22,4.5,4.5,0,0,0,1.65,1.65,3.77,3.77,0,0,0,2,.5,2,2,0,0,0,1.8-1.17,4.87,4.87,0,0,0,0-3.24,4.07,4.07,0,0,0-.81-1.09c-.65-1.45-1.62-2.83-3-3.16a2.78,2.78,0,0,0-1.67.11,2.12,2.12,0,0,0-1.41-1.54.62.62,0,0,0,0-.13,1.56,1.56,0,0,0,.5-.18.43.43,0,0,0,.12-.11,10.17,10.17,0,0,0,3.2-.19h0a12.92,12.92,0,0,0,2.88,2.37L223,162l.06.19-.05.23.09-.1.13-.1.24-.1,0-.14,0-.16.06-.17-.13.07-.21,0-6.53-5.22a13.92,13.92,0,0,0-3-2.46c0-.14-.2-.27-.44-.3a13.51,13.51,0,0,0-3,.49.41.41,0,0,0-.26-.21,3.79,3.79,0,0,0-.85-.12l-.12-.05a2.91,2.91,0,0,0-1.12-1.8v0L208,152c.41-.2.61-1,.59-1.43,0-.11-.11-.21-.16-.31a2.07,2.07,0,0,1-.1-.26.62.62,0,0,1,0-.1.6.6,0,0,1,.39,0c.35.08.66.16,1,.21s.53-.09.54-.24l3.84-2.22.25.08.18.13a2,2,0,0,0,0-.28,1,1,0,0,1,.11-.3l-.22-.11-.23-.18-.17.37-3.88,2.3a.67.67,0,0,0-.34-.13,4.37,4.37,0,0,0-1.69,0c-.09-.1-.21-.1-.34.17a2.16,2.16,0,0,0,0,1.44c.12.39,0,.35-.1.66l-.3,0a2.64,2.64,0,0,0-.77-.14,1.77,1.77,0,0,0-.6-1.42c.43-.66.39-1.41-.24-2.52a5.83,5.83,0,0,0-.88-2.7,12.16,12.16,0,0,0-1.32-1.56l-.47-1.68s.14-.22.19-.28-.6,0-.91.28l.3,0,.63,1.79-.17.1c.75.83,1.21,1.11,1.43,2.17l-.23.06a3.7,3.7,0,0,1,1.06,1.79,2.38,2.38,0,0,0,.08,1,2,2,0,0,1-.07,1.18,6.1,6.1,0,0,0-1.56-.34c-.27,0-.53-.08-.81-.14a2.34,2.34,0,0,0,.14-.55,2,2,0,0,0-.68-1.66,7.39,7.39,0,0,0-3.1-2.27,31.1,31.1,0,0,0,2.34-2.85,1.66,1.66,0,0,0,.08-1.12c-.09-.38-.93-.32-1.16-.32a5.9,5.9,0,0,1-2.63-.46c-.21-.11-.42-.22-.66-.33s-.23-.13-.43-.09a2.52,2.52,0,0,0-1.6-.88c-.34-.09-.38.14-.29.41a1.62,1.62,0,0,0,1.67,1c.13.25.15.33.45.39s.47.09.7.12a17.75,17.75,0,0,0,2.72.25l1,0c-.37,1.65-1.7,2.54-2.5,3.83a1.84,1.84,0,0,0-1.52.49c.3.13.73-.07.83,0l.37.25a3.1,3.1,0,0,0-1.5,2.23c-.08-.13-.21-.24-.24-.39-.07-.41.08-.69-.08-1.13-.52,1-.5,1.51-.08,2.13-.69,1.37-.73,3-1.94,4.19-.17-.28-.32-.57-.49-.85a19.35,19.35,0,0,0-1.63-2.21c-.15-.19-.31-.37-.47-.55s-.29-.2-.57-.18a1.61,1.61,0,0,0-1.68-.93c-.28,0-.44.21-.2.46a2.55,2.55,0,0,0,1.58.92c.08.19.13.21.3.32s.43.27.63.4a5.94,5.94,0,0,1,1.76,2c.13.2.51.95.88.83a1.64,1.64,0,0,0,.9-.66,29.26,29.26,0,0,0,1.16-3.45,7.59,7.59,0,0,0,2.41,2.22,2.06,2.06,0,0,0,2.1.14Z" transform="translate(-26.8 -131.49)"/><path class="cls-1" d="M308.56,158.22a6.82,6.82,0,0,0,.77.23c.09.78,0,1.51.11,2.31a2.12,2.12,0,0,0,.22.7c-.62.38-1.15.28-2.14,0a4.44,4.44,0,0,0-1.48-.34,8.77,8.77,0,0,1-2.83-1.76l0,.27c-1.57-.53-2.09-1.18-3.47-2.31l-.09.19-2.72-1.22-.06-.38a1,1,0,0,0-.17,1.08l.35-.18,2.54,1a30.54,30.54,0,0,0,2.55,2,13.21,13.21,0,0,0,4.09,1.75c2.11,1.27,3.27,1.34,4.15.61a4.82,4.82,0,0,0,1.11.52,1.82,1.82,0,0,0,.07.25c-.21.17-.31.33-.3.47-.52.19-1.11.55-1.11,1.18,0,.32.08.48.07.79-.78-.11-2-.3-2.59.29l-4.36,1.65-.37-.1v.29l-.06.23a1,1,0,0,1,.3.1,1.45,1.45,0,0,0,.21.16v-.21l.1-.24,4.31-1.69a5,5,0,0,0,2.48-.24c.42,0,.57-.13.74-.59a1.74,1.74,0,0,0,.06-.51,1.23,1.23,0,0,1,.32-.91,2.47,2.47,0,0,0,1.15.27c-.08,1.05-.05,1.32.94,1.73,0,.72,0,1,.22,1.13l-.28.45c-1,1.32-1.8,2.68-2.66,4.08a1.45,1.45,0,0,0-.26.85,9.48,9.48,0,0,0,1.44,4.62c.43,3.13.9,6.22.22,9.38l-.3.16.13.7h.53l0-.78c.88-3.05.31-6.3-.22-9.35.29-1.69-.69-3.2-1.33-4.71l.6-.81a13.1,13.1,0,0,0,2.21-4l.37-.3a2.45,2.45,0,0,1,.38.36c-.69.93-.07,1.67.64,2.33a4.16,4.16,0,0,0-.88.79c-.93,1.16-.4,3.26.39,4.31A12.49,12.49,0,0,0,315.7,176c.11.12.18.27.28.4a4.87,4.87,0,0,0,3,1.49,2,2,0,0,0,1.92-.93,4.85,4.85,0,0,0,.6-4,4.71,4.71,0,0,0-1.29-2.8,5.12,5.12,0,0,0-2.19-1.28,2.3,2.3,0,0,0-1.42.17c0-.9-.08-1.68-1.06-2-.28-.62,0-.86-.53-1.44a6.19,6.19,0,0,0,.31-.87l.81.1a2.18,2.18,0,0,0,1.27.8.22.22,0,0,0,.14,0,9.41,9.41,0,0,0,3.42,1.34l7.81,3.83.1.3.5-.25-.11-.55-.33.16c-2.64-1.14-5.17-2.46-7.77-3.7a6.9,6.9,0,0,0-3.54-1.46,2.1,2.1,0,0,0-1-.94,1,1,0,0,0-.36-.48,4.65,4.65,0,0,0-1.42-.55,1.54,1.54,0,0,0-.19-.17v-.17a2.59,2.59,0,0,0,.37-.37,1.35,1.35,0,0,0,.21-.79,3.76,3.76,0,0,1,.65-.48,2.51,2.51,0,0,1,.83-.26c.57-.09.88.06,1.45-.26a2.54,2.54,0,0,0,.91-1c.85-.52,2.2-1.13,2.73-2,.28-.46.55-.92.83-1.37A27.86,27.86,0,0,1,326,152l.57-.21-.28-.52-.59,0,0,.43a36.17,36.17,0,0,0-3.52,4.65c-.29.18-.6.33-.87.53a5.56,5.56,0,0,0-.74.64c-.22.25-.39.54-.59.8a3.49,3.49,0,0,1-1.34,1.1c-.49.21-.93.5-1.41.73-.76.38-1.42.74-2.11,1.16-.11-.11-.29-.14-.57,0l-.54.32-.36-.23a4.63,4.63,0,0,0,0-.71c1.24-.45,1.76-1.51,1.46-4.2a13.47,13.47,0,0,0,.11-4.49,29.9,29.9,0,0,0-.77-3.19l.15-2.75.3-.25a1,1,0,0,0-1-.28l.32.21,0,3H314c.46,1.73.83,2.49.65,4.15l-.26-.08a8.78,8.78,0,0,1,.42,3.32,4.65,4.65,0,0,0-.3,1.5c-.16,1.09-.29,1.62-1,2.05l0,.06a3,3,0,0,0-1.49-1.3,3.12,3.12,0,0,0,.68-.83,5,5,0,0,0,.65-1.31,13.08,13.08,0,0,0,.58-2.9,14.68,14.68,0,0,0-.58-2.72,2.35,2.35,0,0,0-1.33-1.58c-.41.39.53,1.74.75,2.13a2.63,2.63,0,0,0-3.47-.41c.66-.82,1.17-.86,1.94-1.47-1.17-.56-2.38.84-3,1.68a6.3,6.3,0,0,0-1,4.06,8.79,8.79,0,0,0,.09,1.54c.17,1,.41,1.26,1.24,1.55Z" transform="translate(-26.8 -131.49)"/></svg>